<svg width="15" height="16" viewBox="0 0 15 16" fill="none" xmlns="http://www.w3.org/2000/svg">
<path d="M12.8889 14H1.61111V5.75H12.8889M10.4722 0.5V2H4.02778V0.5H2.41667V2H1.61111C0.716944 2 0 2.6675 0 3.5V14C0 14.3978 0.169741 14.7794 0.471883 15.0607C0.774025 15.342 1.18382 15.5 1.61111 15.5H12.8889C13.3162 15.5 13.726 15.342 14.0281 15.0607C14.3303 14.7794 14.5 14.3978 14.5 14V3.5C14.5 3.10218 14.3303 2.72064 14.0281 2.43934C13.726 2.15804 13.3162 2 12.8889 2H12.0833V0.5M11.2778 8.75H7.25V12.5H11.2778V8.75Z" fill="black"/>
</svg>
