<svg width="15" height="14" viewBox="0 0 15 14" fill="none" xmlns="http://www.w3.org/2000/svg">
<path d="M7.5 12.6C9.0913 12.6 10.6174 12.01 11.7426 10.9598C12.8679 9.90959 13.5 8.48521 13.5 7C13.5 5.51479 12.8679 4.09041 11.7426 3.0402C10.6174 1.99 9.0913 1.4 7.5 1.4C5.9087 1.4 4.38258 1.99 3.25736 3.0402C2.13214 4.09041 1.5 5.51479 1.5 7C1.5 8.48521 2.13214 9.90959 3.25736 10.9598C4.38258 12.01 5.9087 12.6 7.5 12.6ZM7.5 0C8.48491 0 9.46018 0.18106 10.3701 0.532843C11.2801 0.884626 12.1069 1.40024 12.8033 2.05025C13.4997 2.70026 14.0522 3.47194 14.4291 4.32122C14.806 5.17049 15 6.08075 15 7C15 8.85651 14.2098 10.637 12.8033 11.9497C11.3968 13.2625 9.48912 14 7.5 14C3.3525 14 0 10.85 0 7C0 5.14348 0.790176 3.36301 2.1967 2.05025C3.60322 0.737498 5.51088 0 7.5 0ZM7.875 3.5V7.175L11.25 9.044L10.6875 9.905L6.75 7.7V3.5H7.875Z" fill="black"/>
</svg>
