<svg width="15" height="14" viewBox="0 0 15 14" fill="none" xmlns="http://www.w3.org/2000/svg">
<path d="M6.75 10.5H8.25V6.3H6.75V10.5ZM7.5 4.9C7.7125 4.9 7.89075 4.8328 8.03475 4.6984C8.17875 4.564 8.2505 4.39787 8.25 4.2C8.25 4.00167 8.178 3.8353 8.034 3.7009C7.89 3.5665 7.712 3.49953 7.5 3.5C7.2875 3.5 7.10925 3.5672 6.96525 3.7016C6.82125 3.836 6.7495 4.00213 6.75 4.2C6.75 4.39833 6.822 4.5647 6.966 4.6991C7.11 4.8335 7.288 4.90047 7.5 4.9ZM7.5 14C6.4625 14 5.4875 13.8161 4.575 13.4484C3.6625 13.0807 2.86875 12.582 2.19375 11.9525C1.51875 11.3225 0.9845 10.5817 0.591 9.73C0.1975 8.87833 0.0005 7.96833 0 7C0 6.03167 0.197 5.12167 0.591 4.27C0.985 3.41833 1.51925 2.6775 2.19375 2.0475C2.86875 1.4175 3.6625 0.918867 4.575 0.5516C5.4875 0.184333 6.4625 0.000466667 7.5 0C8.5375 0 9.5125 0.183867 10.425 0.5516C11.3375 0.919333 12.1312 1.41797 12.8062 2.0475C13.4812 2.6775 14.0157 3.41833 14.4097 4.27C14.8037 5.12167 15.0005 6.03167 15 7C15 7.96833 14.803 8.87833 14.409 9.73C14.015 10.5817 13.4807 11.3225 12.8062 11.9525C12.1312 12.5825 11.3375 13.0814 10.425 13.4491C9.5125 13.8168 8.5375 14.0005 7.5 14Z" fill="black"/>
</svg>
