<svg width="14" height="14" viewBox="0 0 14 14" fill="none" xmlns="http://www.w3.org/2000/svg">
<path d="M12.5263 1.94444H0.736842V0.5H12.5263V1.94444ZM7.36842 8.80556C7.36842 9.62889 7.68526 10.51 8.10526 11.3333V12.0556H0.736842V7.72222H0V6.27778L0.736842 2.66667H12.5263L13.0421 5.19444C12.5263 4.96333 11.9958 4.83333 11.4211 4.83333C9.21053 4.83333 7.36842 6.63889 7.36842 8.80556ZM6.63158 7.72222H2.21053V10.6111H6.63158V7.72222ZM14 8.80556C14 10.6833 11.4211 13.5 11.4211 13.5C11.4211 13.5 8.8421 10.6833 8.8421 8.80556C8.8421 7.43333 10.0211 6.27778 11.4211 6.27778C12.8211 6.27778 14 7.43333 14 8.80556ZM12.3053 8.87778C12.3053 8.44444 11.8632 8.01111 11.4211 8.01111C10.9789 8.01111 10.5368 8.37222 10.5368 8.87778C10.5368 9.31111 10.9053 9.74444 11.4211 9.74444C11.9368 9.74444 12.3789 9.31111 12.3053 8.87778Z" fill="black"/>
</svg>
