<svg width="14" height="14" viewBox="0 0 14 14" fill="none" xmlns="http://www.w3.org/2000/svg">
<path d="M14 9.4375V11.0625H5.6C5.6 11.709 5.37875 12.329 4.98492 12.7861C4.5911 13.2432 4.05695 13.5 3.5 13.5C2.94305 13.5 2.4089 13.2432 2.01508 12.7861C1.62125 12.329 1.4 11.709 1.4 11.0625H0V2.125C0 1.69402 0.1475 1.2807 0.41005 0.975951C0.672601 0.671205 1.0287 0.5 1.4 0.5H10.5C10.8713 0.5 11.2274 0.671205 11.4899 0.975951C11.7525 1.2807 11.9 1.69402 11.9 2.125V9.4375H14ZM3.5 10.25C3.31435 10.25 3.1363 10.3356 3.00503 10.488C2.87375 10.6403 2.8 10.847 2.8 11.0625C2.8 11.278 2.87375 11.4847 3.00503 11.637C3.1363 11.7894 3.31435 11.875 3.5 11.875C3.68565 11.875 3.8637 11.7894 3.99497 11.637C4.12625 11.4847 4.2 11.278 4.2 11.0625C4.2 10.847 4.12625 10.6403 3.99497 10.488C3.8637 10.3356 3.68565 10.25 3.5 10.25Z" fill="black"/>
</svg>
