<svg width="50" height="28" viewBox="0 0 50 28" fill="none" xmlns="http://www.w3.org/2000/svg">
<g clip-path="url(#clip0_118_23)">
<path d="M30.951 7.78261H48.7349V16.4843C48.7349 17.9457 47.7596 19.0749 46.4975 19.0749H45.8665V17.7464H46.4975C47.0712 17.7464 47.5302 17.215 47.5875 16.4843V11.7681H34.9667V16.4843C34.9667 17.1486 35.4257 17.68 36.0567 17.7464H36.6878V19.0749H36.0567C34.852 19.0749 33.8768 17.9457 33.8768 16.4843V9.11111H31.0084C30.6642 9.11111 30.4347 8.84541 30.4347 8.44686C30.4347 8.04831 30.6068 7.78261 30.951 7.78261Z" fill="#008782"/>
<path d="M41.5 16C43.431 16 45 17.569 45 19.5C45 21.431 43.431 23 41.5 23C39.569 23 38 21.431 38 19.5C38 17.569 39.569 16 41.5 16ZM40.8966 20.1034H42.1034V18.8966H40.8966V20.1034Z" fill="#008782"/>
</g>
<path fill-rule="evenodd" clip-rule="evenodd" d="M25.8792 1.56163L21.8629 2.76652L24.537 9.76011C25.0338 9.63905 25.5528 9.57481 26.087 9.57481C29.6888 9.57481 32.6087 12.4947 32.6087 16.0965C32.6087 19.6984 29.6888 22.6183 26.087 22.6183C22.4851 22.6183 19.5652 19.6984 19.5652 16.0965C19.5652 13.6057 20.9615 11.4411 23.0142 10.3427L21.6709 6.82973L17.0389 16.4502C16.903 16.7324 16.6176 16.9118 16.3043 16.9118H12.993C12.5918 20.1289 9.8475 22.6183 6.52174 22.6183C2.91988 22.6183 0 19.6984 0 16.0965C0 12.4947 2.91988 9.57481 6.52174 9.57481C9.8475 9.57481 12.5918 12.0642 12.993 15.2813H15.0311L11.053 4.14245C11.0206 4.05188 11.0052 3.95927 11.0052 3.86829H9.78261C9.33236 3.86829 8.96739 3.50332 8.96739 3.05307C8.96739 2.60283 9.33236 2.23785 9.78261 2.23785H13.4511C13.9013 2.23785 14.2663 2.60283 14.2663 3.05307C14.2663 3.50332 13.9013 3.86829 13.4511 3.86829H12.6863L14.1879 8.07269L20.813 4.58584L20.0265 2.52905C19.9457 2.31734 19.9565 2.08149 20.0565 1.8781C20.1565 1.67478 20.3367 1.52217 20.5538 1.45704L25.4107 0L25.8792 1.56163ZM14.7418 9.62364L16.3492 14.1243L19.7972 6.96294L14.7418 9.62364ZM25.3255 16.3877L23.6027 11.8821C22.162 12.7332 21.1957 14.302 21.1957 16.0965C21.1957 18.7979 23.3856 20.9879 26.087 20.9879C28.7883 20.9879 30.9783 18.7979 30.9783 16.0965C30.9783 13.3952 28.7883 11.2052 26.087 11.2052C25.7579 11.2052 25.4364 11.2378 25.1257 11.2996L26.8485 15.8054C27.0092 16.226 26.7986 16.6973 26.3781 16.858C25.9576 17.0189 25.4863 16.8083 25.3255 16.3877ZM11.3454 15.2813H6.52174C6.07149 15.2813 5.70652 15.6463 5.70652 16.0965C5.70652 16.5468 6.07149 16.9118 6.52174 16.9118H11.3454C10.9573 19.2251 8.94538 20.9879 6.52174 20.9879C3.82035 20.9879 1.63043 18.7979 1.63043 16.0965C1.63043 13.3952 3.82035 11.2052 6.52174 11.2052C8.94538 11.2052 10.9573 12.968 11.3454 15.2813Z" fill="#008782"/>
<path d="M23.5 8.49998H48.5" stroke="#008782" stroke-width="1.3"/>
<defs>
<clipPath id="clip0_118_23">
<rect width="20.6522" height="23.913" fill="white" transform="matrix(-1 0 0 1 50 3.43478)"/>
</clipPath>
</defs>
</svg>
