<svg width="30" height="25" viewBox="0 0 30 25" fill="none" xmlns="http://www.w3.org/2000/svg">
<path d="M30 17.1739V20.1739H12C12 21.3674 11.5259 22.512 10.682 23.3559C9.83807 24.1998 8.69347 24.6739 7.5 24.6739C6.30653 24.6739 5.16193 24.1998 4.31802 23.3559C3.47411 22.512 3 21.3674 3 20.1739H0V3.67392C0 2.87827 0.31607 2.11521 0.87868 1.5526C1.44129 0.98999 2.20435 0.67392 3 0.67392H22.5C23.2956 0.67392 24.0587 0.98999 24.6213 1.5526C25.1839 2.11521 25.5 2.87827 25.5 3.67392V17.1739H30ZM7.5 18.6739C7.10218 18.6739 6.72064 18.832 6.43934 19.1133C6.15804 19.3946 6 19.7761 6 20.1739C6 20.5717 6.15804 20.9533 6.43934 21.2346C6.72064 21.5159 7.10218 21.6739 7.5 21.6739C7.89782 21.6739 8.27936 21.5159 8.56066 21.2346C8.84196 20.9533 9 20.5717 9 20.1739C9 19.7761 8.84196 19.3946 8.56066 19.1133C8.27936 18.832 7.89782 18.6739 7.5 18.6739Z" fill="#008782"/>
</svg>
