<svg width="129" height="166" viewBox="0 0 129 166" xmlns="http://www.w3.org/2000/svg" xmlns:xlink="http://www.w3.org/1999/xlink"><defs><path id="a" d="M.08.203h15.74V13H.08z"/><path id="c" d="M.019.069h24.8V13H.018z"/><path id="e" d="M0 .167h24.882v18.794H0z"/></defs><g fill="none" fill-rule="evenodd"><path d="M129 65.386v5.425c-1.151 2.924-4.123 4.359-7.075 5.466-3.972 1.49-7.483 4.28-8.573 9.27-.12.555-.622.614-.788.098-.615-1.903-1.127-4.3-1.47-7.978-.906-9.68 4.889-15.962 10.39-16.618 2.387-.285 5.047.686 6.52 2.574.422.538.756 1.133.996 1.763" fill="#008782"/><g transform="translate(113 153)"><mask id="b" fill="#fff"><use xlink:href="#a"/></mask><path d="M15.82 5.337V13H.08c1.432-1.267 3.313-2.112 5.186-2.825 4.02-1.53 7.574-4.392 8.678-9.509.122-.568.629-.627.798-.1.41 1.291.775 2.805 1.077 4.771" fill="#008782" mask="url(#b)"/></g><path d="M103.23 71.033c-.8-1.624-2.14-2.924-3.805-3.587-2.261-.904-5.117-.384-7.09 1.105-4.553 3.426-6.533 11.953-.846 20.019 2.16 3.064 3.823 4.908 5.327 6.27.408.368.824.058.65-.494-1.545-4.959.162-9.236 2.94-12.603 2.532-3.076 4.845-6.603 2.823-10.71M86.776 109.233c-3.75-3.498-4.38-8.038-3.655-12.334.662-3.923.917-8.116-2.825-10.64-1.477-1-3.26-1.448-5.008-1.185-2.375.359-4.563 2.239-5.524 4.512-2.216 5.234.263 13.578 9.071 17.67 3.35 1.555 5.677 2.311 7.627 2.727.529.114.732-.363.314-.75M85.546 126.584c-4.987-1.119-7.777-4.724-9.268-8.801-1.362-3.726-3.214-7.483-7.714-7.768-1.78-.111-3.549.405-4.938 1.52-1.891 1.512-2.862 4.248-2.577 6.698.66 5.651 6.936 11.601 16.616 10.67 3.68-.351 6.077-.88 7.98-1.508.516-.17.458-.685-.1-.811M94.346 142.533c-4.961 1.547-9.234-.16-12.605-2.935-3.076-2.537-6.599-4.849-10.71-2.827-1.622.803-2.923 2.14-3.585 3.804-.904 2.262-.383 5.118 1.105 7.091 3.424 4.553 11.954 6.532 20.017.846 3.064-2.161 4.911-3.825 6.27-5.328.371-.407.06-.822-.492-.651" fill="#008782"/><g transform="translate(85 153)"><mask id="d" fill="#fff"><use xlink:href="#c"/></mask><path d="M24.802.593c-.414 1.91-1.164 4.186-2.71 7.456-.927 1.968-2.072 3.611-3.354 4.951H.526a5.932 5.932 0 01-.433-1.48C-.17 9.811.274 8.066 1.263 6.62c2.505-3.655 6.668-3.406 10.561-2.76 4.26.707 8.764.092 12.23-3.572.389-.41.86-.212.748.304" fill="#008782" mask="url(#d)"/></g><path d="M45.683 129c-5.023 0-8.37-1.859-10.294-3.418-2.443-1.981-4.024-4.662-4.338-7.356-.298-2.533.734-5.223 2.57-6.692 1.233-.99 2.816-1.534 4.457-1.534.157 0 .315.005.472.015 4.385.278 6.295 3.899 7.707 7.77 1.783 4.884 4.916 7.861 9.312 8.848.253.057.422.208.43.384.009.16-.12.303-.336.374-2.177.719-4.715 1.2-7.99 1.512a20.89 20.89 0 01-1.989.097z" fill="#64C3CD"/><path d="M38.09 110c-1.615 0-3.197.519-4.465 1.535-1.889 1.511-2.864 4.246-2.575 6.698.613 5.251 6.083 10.767 14.628 10.767.646 0 1.308-.032 1.988-.097 3.68-.351 6.075-.88 7.978-1.508.517-.17.459-.687-.096-.811-4.987-1.119-7.78-4.724-9.271-8.804-1.36-3.726-3.213-7.48-7.714-7.765a7.609 7.609 0 00-.473-.015m0 .057c.155 0 .313.005.469.015 2.031.129 3.665.97 4.996 2.572 1.238 1.49 2.044 3.443 2.668 5.156 1.784 4.88 4.917 7.854 9.312 8.84.24.053.4.193.408.356.007.146-.114.278-.317.345-2.17.715-4.7 1.194-7.966 1.505-.666.064-1.333.097-1.982.097-5.004 0-8.338-1.85-10.253-3.402-2.432-1.97-4.006-4.637-4.318-7.315-.297-2.516.73-5.187 2.553-6.646 1.225-.982 2.798-1.523 4.43-1.523" fill="#201D21"/><path d="M129 35.385v5.432c-1.153 2.92-4.125 4.352-7.075 5.461-3.972 1.492-7.483 4.282-8.573 9.268-.12.557-.622.616-.788.098-.61-1.904-1.127-4.298-1.47-7.976-.906-9.682 4.889-15.958 10.39-16.619 2.387-.285 5.047.688 6.52 2.578.42.536.75 1.13.996 1.758M55.548 126.584c-4.987-1.119-7.78-4.724-9.271-8.804-1.36-3.726-3.213-7.48-7.715-7.765-1.776-.111-3.546.405-4.937 1.52-1.889 1.512-2.864 4.246-2.575 6.698.66 5.648 6.935 11.601 16.616 10.67 3.68-.351 6.076-.88 7.978-1.508.517-.17.459-.687-.096-.811M60.429 146.705c-5.063.49-8.804-2.067-11.458-5.482-2.424-3.118-5.32-6.113-9.669-4.977-1.716.449-3.234 1.491-4.214 2.988-1.327 2.026-1.416 4.933-.398 7.176 2.346 5.168 10.1 8.869 18.982 4.958 3.378-1.483 5.485-2.731 7.095-3.922.436-.326.224-.799-.338-.741M71.878 164.204c-.39.57-.833 1.163-1.353 1.796H45a6.752 6.752 0 01.216-1.549 7.473 7.473 0 013.067-4.282c3.753-2.517 7.386-.518 10.609 1.751 3.53 2.486 7.826 3.783 12.446 1.67.515-.238.857.155.54.614M103.754 39.302c-.449-1.718-1.492-3.238-2.986-4.212-2.03-1.33-4.933-1.417-7.177-.4-5.168 2.344-8.87 10.1-4.96 18.982 1.484 3.375 2.733 5.486 3.926 7.097.323.434.794.221.74-.34-.492-5.065 2.066-8.805 5.48-11.459 3.118-2.422 6.114-5.323 4.977-9.668M79.838 48.289a7.437 7.437 0 00-4.258-3.067c-2.401-.64-5.256.151-7.112 1.79-4.278 3.765-5.391 12.184 1.264 19.371 2.53 2.733 4.421 4.34 6.098 5.497.454.313.845-.028.611-.541-2.102-4.621-.813-8.913 1.657-12.444 2.256-3.22 4.241-6.856 1.74-10.606M62.825 87.247c-3.306-3.875-3.463-8.455-2.324-12.648 1.042-3.832 1.712-7.98-1.684-10.885-1.34-1.15-3.034-1.784-4.765-1.708-2.355.102-4.678 1.74-5.843 3.898-2.693 4.974-1.116 13.529 7.068 18.534 3.11 1.905 5.303 2.902 7.164 3.527.503.165.75-.285.384-.718M55.69 106.213c-4.355-2.574-5.89-6.802-6.057-11.068-.154-3.898-.763-7.978-4.909-9.621-1.637-.651-3.46-.71-5.104-.096-2.235.834-3.979 3.09-4.448 5.468-1.091 5.484 3.012 12.967 12.4 15.067 3.57.797 5.983 1.04 7.964 1.037.535-.003.636-.502.153-.787" fill="#00AAA4"/><path d="M129 4.384v5.434c-1.153 2.92-4.125 4.352-7.075 5.461-3.972 1.49-7.483 4.28-8.573 9.268-.12.557-.622.613-.788.097-.61-1.903-1.127-4.298-1.47-7.978-.906-9.68 4.889-15.958 10.39-16.616 2.387-.288 5.047.688 6.52 2.573.42.539.75 1.132.996 1.76M103.898 8.017c-.283-1.78-1.16-3.41-2.518-4.532-1.847-1.525-4.65-1.878-6.909-1.047-5.21 1.91-9.474 9.423-6.48 18.76 1.14 3.548 2.163 5.793 3.175 7.531.275.47.747.298.744-.277-.029-5.169 2.778-8.723 6.317-11.101 3.232-2.17 6.385-4.834 5.67-9.334M79.458 15.36c-.664-1.622-1.88-2.972-3.46-3.733-2.146-1.036-4.975-.743-7.013.548-4.7 2.969-7.255 11.037-2.28 19.217 1.89 3.107 3.383 5.005 4.755 6.427.373.385.8.116.674-.426-1.154-4.892.827-8.886 3.785-11.928 2.7-2.777 5.22-6.003 3.539-10.106M57.647 26.047a7.554 7.554 0 00-4.444-2.894c-2.452-.537-5.294.379-7.087 2.1-4.135 3.963-4.858 12.46 2.197 19.385 2.68 2.633 4.667 4.165 6.414 5.255.473.295.85-.062.59-.568-2.342-4.55-1.248-8.91 1.078-12.56 2.123-3.329 3.952-7.062 1.252-10.718M40.834 66.27c-3.285-3.97-3.242-8.49-1.858-12.572 1.263-3.723 2.153-7.78-1.27-10.798-1.352-1.193-3.094-1.897-4.91-1.9-2.468-.006-4.974 1.5-6.291 3.572-3.039 4.778-1.776 13.28 6.56 18.586 3.165 2.016 5.418 3.098 7.335 3.797.52.188.799-.244.434-.685M30.748 85.223c-3.964-3.181-4.919-7.628-4.515-11.938.366-3.933.311-8.111-3.57-10.328-1.534-.873-3.328-1.182-5.037-.789-2.322.53-4.347 2.558-5.13 4.882-1.807 5.354 1.254 13.431 10.258 16.818 3.422 1.286 5.777 1.857 7.736 2.125.532.073.697-.417.258-.77M25.637 105.092c-4.732-2.194-6.708-6.293-7.276-10.568-.52-3.9-1.522-7.941-5.952-9.216-1.75-.502-3.636-.398-5.278.37-2.228 1.039-3.817 3.462-4.08 5.896-.616 5.605 4.31 12.75 14.19 14.004 3.755.475 6.267.5 8.31.315.554-.047.61-.559.086-.8" fill="#64C3CD"/><g transform="translate(0 110)"><mask id="f" fill="#fff"><use xlink:href="#e"/></mask><path d="M24.432 16.567c-4.967-1.11-7.743-4.67-9.227-8.707-1.356-3.682-3.2-7.4-7.679-7.678-1.768-.11-3.53.4-4.914 1.504C.73 3.184-.238 5.889.05 8.31c.658 5.59 6.905 11.475 16.54 10.554 3.66-.355 6.045-.874 7.938-1.499.515-.166.456-.677-.096-.799" fill="#64C3CD" mask="url(#f)"/></g><path d="M28.453 148.084c-5.17.03-8.723-2.772-11.104-6.313-2.172-3.23-4.836-6.383-9.335-5.669-1.777.283-3.408 1.161-4.53 2.522-1.527 1.848-1.876 4.65-1.045 6.91 1.91 5.207 9.424 9.472 18.762 6.472 3.547-1.142 5.79-2.165 7.527-3.178.471-.27.299-.748-.275-.744M28 166H11a6.17 6.17 0 01.591-2.098c.76-1.54 2.11-2.723 3.728-3.373 4.101-1.638 7.326.814 10.1 3.44A16.99 16.99 0 0028 166" fill="#64C3CD"/></g></svg>