<svg width="381" height="381" viewBox="0 0 381 381" fill="none" xmlns="http://www.w3.org/2000/svg">
<path d="M346.474 297.104C335.851 320.055 315.209 336.72 292.547 346.017C269.885 355.313 245.219 357.889 220.889 358.331C219.357 358.361 217.825 358.376 216.294 358.391C184.16 358.597 151.577 354.863 121.79 342.595C119.23 341.544 116.685 340.424 114.163 339.242C80.9625 323.637 51.9912 295.359 40.7746 259.088C36.0959 243.962 34.5719 227.884 35.2882 212.004C36.1188 193.716 40.1345 175.618 46.863 158.732C58.2015 130.302 77.4573 100.66 104.181 86.7995C168.432 53.4924 229.796 77.404 253.129 101.773C278.214 127.97 287.899 170.68 312.336 197.549C321.221 207.31 332.598 214.442 340.736 224.897C356.121 244.655 357.096 274.16 346.474 297.104Z" fill="#E3F2FF"/>
<path d="M292.337 333.759C292.133 335.448 291.928 337.137 291.724 338.826C291.718 338.875 291.794 338.874 291.8 338.826C292.004 337.137 292.209 335.448 292.414 333.759C292.42 333.71 292.343 333.71 292.337 333.759Z" fill="#E3F2FF"/>
<mask id="mask0_45_2" style="mask-type:luminance" maskUnits="userSpaceOnUse" x="35" y="70" width="319" height="289">
<path d="M346.474 297.104C335.851 320.055 315.209 336.72 292.547 346.017C269.885 355.313 245.219 357.889 220.889 358.331C219.357 358.361 217.825 358.376 216.294 358.391C184.16 358.597 151.577 354.863 121.79 342.595C119.23 341.544 116.685 340.424 114.163 339.242C80.9625 323.637 51.9912 295.359 40.7746 259.088C36.0959 243.962 34.5719 227.884 35.2882 212.004C36.1188 193.716 40.1345 175.618 46.863 158.732C58.2015 130.302 77.4573 100.66 104.181 86.7995C168.432 53.4924 229.796 77.404 253.129 101.773C278.214 127.97 287.899 170.68 312.336 197.549C321.221 207.31 332.598 214.442 340.736 224.897C356.121 244.655 357.096 274.16 346.474 297.104Z" fill="white"/>
</mask>
<g mask="url(#mask0_45_2)">
<path d="M288.082 288.377C286.69 277.242 284.085 265.824 277.228 256.942C273.085 251.575 270.527 249.185 265.301 242.457C260.777 236.633 256.23 233.7 249.992 224.698C254.359 239.222 258.769 254.035 258.492 269.199C258.346 277.157 256.905 285.09 257.397 293.034C258.537 311.432 270.156 328.001 285.033 338.887C292.66 344.467 301.517 348.895 310.96 349.298C304.729 349.033 296.932 331.159 294.764 326.298C289.538 314.584 289.647 300.895 288.082 288.377Z" fill="#C9E2F4"/>
<path d="M259.735 248.659C264.633 258.148 268.105 268.273 269.884 278.809C271.562 288.747 271.3 299.077 273.47 308.913C276.397 322.187 285.694 337.958 298.616 343.486C299.25 343.757 299.704 342.818 299.162 342.433C286.654 333.516 276.736 320.641 274.653 305.021C273.322 295.041 273.021 284.94 270.918 275.068C268.903 265.613 265.514 256.59 260.926 248.085C260.524 247.341 259.343 247.898 259.735 248.659Z" fill="#E3F2FF"/>
<path d="M226.949 336.134C227.083 335.361 227.317 334.558 227.894 334.024C229.197 332.818 231.31 333.627 233.042 333.239C235.246 332.747 236.538 330.236 236.338 327.986C236.138 325.737 234.806 323.752 233.337 322.037C230.479 318.699 226.966 315.971 224.085 312.652C221.204 309.334 218.913 305.139 219.262 300.758C223.013 300.186 226.859 300.241 230.592 300.92C231.839 294.177 226.29 288.366 222.51 282.645C218.641 276.791 216.355 269.902 215.956 262.897C215.847 260.98 216.022 258.753 217.58 257.631C218.633 256.873 220.063 256.852 221.319 257.179C230.374 259.536 230.341 275.483 239.552 277.124C238.977 275.333 241.252 273.636 243.066 274.135C244.879 274.632 246.004 276.469 246.521 278.276C247.908 283.121 246.22 288.232 245.298 293.186C244.377 298.142 244.578 304.053 248.525 307.187C250.255 308.56 252.523 309.217 254.029 310.831C257.042 314.059 255.659 319.247 253.99 323.334C252.32 327.422 250.628 332.406 253.27 335.943C255.025 338.291 258.194 339.159 260.171 341.323C264.467 346.026 261.176 353.352 259.983 359.608C259.107 364.206 259.552 369.049 261.255 373.413C264.495 381.711 259.225 383.06 254.549 376.575C252.078 373.148 250.218 369.317 247.558 366.026C240.675 357.508 224.703 349.168 226.949 336.134Z" fill="#C9E2F4"/>
<path d="M224.656 272.429C229.501 280.32 234.185 288.167 237.217 296.974C240.371 306.135 241.077 315.61 242.16 325.166C243.166 334.031 245.198 342.716 247.907 351.21C249.367 355.79 251.017 360.309 252.781 364.782C254.347 368.752 255.81 373.098 258.092 376.712C258.391 377.185 259.155 376.887 259.006 376.327C257.79 371.769 255.495 367.417 253.787 363.018C252.047 358.536 250.427 354.005 249.001 349.414C246.015 339.798 244.219 330.101 243.21 320.093C242.334 311.398 241.135 302.921 238.033 294.7C234.983 286.616 230.791 278.804 225.75 271.789C225.284 271.139 224.221 271.72 224.656 272.429Z" fill="#E3F2FF"/>
<path d="M124.559 276.252C120.09 275.78 115.431 274.77 111.213 276.321C105.934 278.262 102.852 283.622 100.208 288.586C98.7772 291.271 97.0353 295.204 95.7018 299.324C95.9129 293.852 95.7818 288.361 95.5144 282.895C95.0937 274.29 94.3287 265.528 94.1534 256.807C98.2019 255.113 106.63 252.511 110.283 251.489C113.406 250.615 116.569 249.725 119.366 248.084C122.235 246.403 124.601 244.004 126.932 241.632C131.217 237.272 135.736 232.447 136.47 226.377C132.675 228.499 128.749 230.665 124.428 231.15C122.009 231.422 119.563 231.152 117.131 231.247C111.065 231.483 105.123 234.086 100.837 238.384C99.0356 240.184 95.7971 249.169 94.1184 254.08C94.0643 242.774 95.1699 231.572 99.4928 220.911C99.8677 219.986 98.4145 219.542 98.0267 220.44C89.9396 239.189 91.9276 259.578 92.9274 279.425C90.0699 272.391 84.6521 263.802 81.3084 259.022C80.6058 258.018 79.8408 256.997 78.7572 256.426C77.3513 255.684 75.6681 255.822 74.0808 255.908C65.9716 256.346 57.7656 254.885 50.3057 251.676C53.3057 258.511 56.9876 265.172 62.2477 270.468C67.5078 275.764 74.5152 279.614 81.9729 279.921C85.5207 280.068 89.8649 281.704 93.1362 284.032C93.489 292.952 93.4768 301.926 92.0549 310.754C90.1933 322.315 85.5017 332.849 81.6132 343.792C81.0333 345.424 83.455 346.12 84.1255 344.601C88.6206 334.42 92.4641 323.532 94.3752 312.549C94.6815 310.788 94.9124 309.021 95.1113 307.249C100.469 303.657 106.045 299.512 112.227 297.285C124.345 292.92 135.198 285.098 143.169 274.979C137.104 276.478 130.774 276.91 124.559 276.252Z" fill="#C9E2F4"/>
<path d="M349.292 285.21C345.604 286.474 341.57 287.384 338.82 290.147C335.378 293.605 334.915 298.949 334.652 303.821C334.51 306.456 334.578 310.187 335.037 313.916C333.201 309.534 331.088 305.263 328.878 301.063C325.399 294.449 321.591 287.837 318.262 281.041C320.826 278.227 326.504 273.098 329.003 270.957C331.14 269.127 333.302 267.27 334.902 264.956C336.543 262.584 337.526 259.831 338.492 257.114C340.267 252.117 342.056 246.668 340.412 241.625C338.204 244.683 335.909 247.823 332.688 249.786C330.885 250.885 328.862 251.567 326.984 252.531C322.3 254.936 318.578 259.158 316.779 264.107C316.021 266.182 316.761 274.433 317.238 278.91C313.058 270.037 309.83 260.823 309.329 250.856C309.286 249.991 307.98 250.173 308.003 251.021C308.502 268.727 317.526 284.036 325.574 299.281C320.753 294.794 313.35 290.021 308.97 287.485C308.051 286.952 307.075 286.43 306.014 286.376C304.637 286.308 303.363 287.032 302.146 287.68C295.928 290.992 288.939 292.845 281.897 293.051C286.757 297.33 292.09 301.222 298.166 303.463C304.241 305.704 311.161 306.168 317.14 303.68C319.983 302.498 323.999 302.195 327.424 302.829C330.966 309.716 334.24 316.778 336.351 324.243C339.117 334.017 339.281 344.019 340.227 354.049C340.368 355.545 342.527 355.207 342.499 353.767C342.309 344.114 341.348 334.144 338.834 324.806C338.431 323.31 337.965 321.834 337.474 320.368C340.374 315.582 343.243 310.281 347.291 306.268C355.225 298.401 360.899 288.277 363.467 277.402C359.242 280.798 354.421 283.453 349.292 285.21Z" fill="#C9E2F4"/>
</g>
<path d="M58.1589 233.92C84.0696 233.92 105.074 212.915 105.074 187.004C105.074 161.093 84.0696 140.088 58.1589 140.088C32.2481 140.088 11.2433 161.093 11.2433 187.004C11.2433 212.915 32.2481 233.92 58.1589 233.92Z" fill="#B8D7F4"/>
<path d="M76.656 205.502C86.8727 195.285 86.8727 178.721 76.656 168.504C66.4393 158.288 49.8747 158.288 39.658 168.504C29.4413 178.721 29.4413 195.285 39.658 205.502C49.8747 215.719 66.4393 215.719 76.656 205.502Z" fill="#454EE9"/>
<path d="M58.1588 207.416C69.4318 207.416 78.5705 198.277 78.5705 187.004C78.5705 175.731 69.4318 166.592 58.1588 166.592C46.8857 166.592 37.7471 175.731 37.7471 187.004C37.7471 198.277 46.8857 207.416 58.1588 207.416Z" fill="#F7F7F8"/>
<path d="M58.1588 175.562V187.004L65.7072 192.151" stroke="#008782" stroke-width="2" stroke-miterlimit="10" stroke-linecap="round" stroke-linejoin="round"/>
<path d="M58.1588 168.433V171.997" stroke="#414258" stroke-miterlimit="10"/>
<path d="M58.1588 201.612V205.176" stroke="#414258" stroke-miterlimit="10"/>
<path d="M76.5306 186.804H72.9659" stroke="#414258" stroke-miterlimit="10"/>
<path d="M43.3516 186.804H39.787" stroke="#414258" stroke-miterlimit="10"/>
<path d="M67.3257 170.883L65.5472 173.972" stroke="#414258" stroke-miterlimit="10"/>
<path d="M50.7705 199.636L48.9912 202.726" stroke="#414258" stroke-miterlimit="10"/>
<path d="M74.08 195.971L70.9908 194.193" stroke="#414258" stroke-miterlimit="10"/>
<path d="M45.3267 179.416L42.2375 177.637" stroke="#414258" stroke-miterlimit="10"/>
<path d="M73.9641 177.439L70.8971 179.256" stroke="#414258" stroke-miterlimit="10"/>
<path d="M45.4197 194.353L42.3534 196.17" stroke="#414258" stroke-miterlimit="10"/>
<path d="M67.5245 202.61L65.7072 199.543" stroke="#414258" stroke-miterlimit="10"/>
<path d="M50.6097 174.066L48.7931 170.999" stroke="#414258" stroke-miterlimit="10"/>
<path d="M70.8972 155.324L80.2835 150.645L84.1309 163.948L112.125 137.535L118.527 151.522L82.6732 172.213L70.8972 155.324Z" fill="#008782"/>
<path d="M119.667 116.228C145.578 116.228 166.582 95.2231 166.582 69.3123C166.582 43.4015 145.578 22.3967 119.667 22.3967C93.756 22.3967 72.7512 43.4015 72.7512 69.3123C72.7512 95.2231 93.756 116.228 119.667 116.228Z" fill="#B8D7F4"/>
<path d="M138.833 60.1905V67.2222L119.667 57.1768L100.5 67.2222V60.1905L119.667 50.145L138.833 60.1905Z" fill="#534099"/>
<path d="M138.833 67.2222V95.5107H100.5V67.2222L119.667 57.1768L138.833 67.2222Z" fill="#F7F7F8"/>
<path d="M119.667 76.344C117.527 76.344 115.793 78.0783 115.793 80.218V93.6924H123.541V80.218C123.541 78.0783 121.807 76.344 119.667 76.344Z" fill="#534099"/>
<path d="M112.128 79.5819C112.128 81.4929 110.579 83.0429 108.667 83.0429C106.756 83.0429 105.206 81.4937 105.206 79.5819C105.206 77.67 106.756 76.1208 108.667 76.1208C110.579 76.1208 112.128 77.6708 112.128 79.5819Z" fill="#454EE9"/>
<path d="M134.127 79.5819C134.127 81.4929 132.577 83.0429 130.666 83.0429C128.755 83.0429 127.205 81.4937 127.205 79.5819C127.205 77.67 128.754 76.1208 130.666 76.1208C132.577 76.1208 134.127 77.6708 134.127 79.5819Z" fill="#454EE9"/>
<path d="M105.587 34.9676C105.457 34.9592 105.336 34.9592 105.206 34.9592C105.077 34.9592 104.956 34.9592 104.826 34.9676C99.9432 35.1619 95.8841 39.1716 95.6341 44.0468C95.497 46.7954 96.9112 49.803 98.2371 51.9373C101.592 57.346 105.206 61.8411 105.206 61.8411C105.206 61.8411 108.821 57.346 112.176 51.9373C113.502 49.803 114.917 46.7954 114.779 44.0468C114.529 39.1716 110.47 35.1619 105.587 34.9676ZM105.207 49.8921C102.264 49.8921 99.8708 47.4995 99.8708 44.5482C99.8708 41.6054 102.264 39.212 105.207 39.212C108.15 39.212 110.543 41.6046 110.543 44.5482C110.543 47.4995 108.15 49.8921 105.207 49.8921Z" fill="#008782"/>
<path d="M132.07 35.4095L141.455 30.7308L145.303 44.0338L173.298 17.6213L179.699 31.6078L143.845 52.2984L132.07 35.4095Z" fill="#008782"/>
<path d="M291.673 126.31C309.995 107.988 309.995 78.2832 291.673 59.9617C273.352 41.6402 243.647 41.6402 225.325 59.9617C207.004 78.2832 207.004 107.988 225.325 126.31C243.647 144.631 273.352 144.631 291.673 126.31Z" fill="#B8D7F4"/>
<path d="M298.027 66.9187H220V117.527H298.027V66.9187Z" fill="#F7F7F8"/>
<path d="M298.027 66.9187H220V77.2956H298.027V66.9187Z" fill="#454EE9"/>
<path d="M229.591 69.7862V65.1106" stroke="#F7F7F8" stroke-width="4" stroke-miterlimit="10" stroke-linecap="round" stroke-linejoin="round"/>
<path d="M244.204 69.7579V65.083" stroke="#F7F7F8" stroke-width="4" stroke-miterlimit="10" stroke-linecap="round" stroke-linejoin="round"/>
<path d="M258.818 69.7306V65.0549" stroke="#F7F7F8" stroke-width="4" stroke-miterlimit="10" stroke-linecap="round" stroke-linejoin="round"/>
<path d="M273.433 69.703V65.0273" stroke="#F7F7F8" stroke-width="4" stroke-miterlimit="10" stroke-linecap="round" stroke-linejoin="round"/>
<path d="M288.046 69.6756V65" stroke="#F7F7F8" stroke-width="4" stroke-miterlimit="10" stroke-linecap="round" stroke-linejoin="round"/>
<path d="M250.861 83.9099V88H250.366V84.4291H250.342L249.344 85.0922V84.5889L250.366 83.9099H250.861Z" fill="#414258"/>
<path d="M257.624 87.4338V87.0744L258.974 85.5965C259.132 85.4234 259.263 85.273 259.365 85.1451C259.468 85.016 259.543 84.8948 259.593 84.7817C259.643 84.6672 259.669 84.5473 259.669 84.4222C259.669 84.2784 259.634 84.1539 259.565 84.0487C259.497 83.9435 259.404 83.8623 259.285 83.8051C259.167 83.7478 259.034 83.7192 258.886 83.7192C258.729 83.7192 258.592 83.7518 258.474 83.817C258.359 83.881 258.269 83.9708 258.205 84.0867C258.142 84.2025 258.111 84.3383 258.111 84.4941H257.64C257.64 84.2544 257.695 84.0441 257.805 83.863C257.916 83.6819 258.066 83.5408 258.257 83.4396C258.448 83.3384 258.663 83.2878 258.902 83.2878C259.141 83.2878 259.354 83.3384 259.539 83.4396C259.724 83.5408 259.869 83.6772 259.974 83.849C260.079 84.0208 260.132 84.2118 260.132 84.4222C260.132 84.5726 260.105 84.7197 260.05 84.8635C259.997 85.006 259.904 85.1651 259.77 85.3409C259.639 85.5153 259.456 85.7283 259.221 85.9799L258.303 86.9625V86.9945H260.204V87.4338H257.624Z" fill="#414258"/>
<path d="M269.392 87.4898C269.128 87.4898 268.893 87.4445 268.687 87.354C268.482 87.2634 268.319 87.1376 268.198 86.9765C268.078 86.8141 268.013 86.6257 268.002 86.4113H268.505C268.516 86.5431 268.561 86.657 268.641 86.7528C268.721 86.8473 268.825 86.9206 268.955 86.9725C269.084 87.0244 269.227 87.0504 269.384 87.0504C269.56 87.0504 269.715 87.0198 269.851 86.9585C269.987 86.8973 270.094 86.8121 270.171 86.7029C270.248 86.5937 270.287 86.4672 270.287 86.3234C270.287 86.173 270.249 86.0405 270.175 85.926C270.1 85.8102 269.991 85.7196 269.847 85.6544C269.703 85.5892 269.528 85.5565 269.32 85.5565H268.993V85.1172H269.32C269.482 85.1172 269.625 85.0879 269.747 85.0293C269.871 84.9707 269.968 84.8882 270.037 84.7817C270.108 84.6751 270.143 84.55 270.143 84.4062C270.143 84.2677 270.112 84.1472 270.051 84.0447C269.99 83.9422 269.903 83.8623 269.791 83.8051C269.681 83.7478 269.55 83.7192 269.4 83.7192C269.259 83.7192 269.126 83.7452 269.001 83.7971C268.877 83.8477 268.776 83.9216 268.697 84.0188C268.618 84.1146 268.576 84.2305 268.569 84.3663H268.09C268.098 84.1519 268.162 83.9642 268.284 83.8031C268.405 83.6406 268.563 83.5141 268.759 83.4236C268.956 83.3331 269.172 83.2878 269.408 83.2878C269.661 83.2878 269.878 83.3391 270.059 83.4416C270.24 83.5428 270.379 83.6766 270.476 83.843C270.574 84.0094 270.622 84.1892 270.622 84.3822C270.622 84.6126 270.562 84.809 270.44 84.9714C270.321 85.1338 270.158 85.2463 269.951 85.3089V85.3409C270.209 85.3835 270.411 85.4933 270.556 85.6704C270.701 85.8461 270.774 86.0638 270.774 86.3234C270.774 86.5458 270.713 86.7455 270.592 86.9226C270.472 87.0983 270.309 87.2368 270.101 87.338C269.893 87.4392 269.657 87.4898 269.392 87.4898Z" fill="#414258"/>
<path d="M277.882 86.595V86.1876L279.679 83.3437H279.975V83.9748H279.775L278.417 86.1237V86.1557H280.837V86.595H277.882ZM279.807 87.4338V86.4712V86.2815V83.3437H280.278V87.4338H279.807Z" fill="#414258"/>
<path d="M289.748 87.4898C289.514 87.4898 289.303 87.4432 289.115 87.35C288.927 87.2568 288.777 87.1289 288.664 86.9665C288.55 86.8041 288.489 86.619 288.478 86.4113H288.957C288.976 86.5964 289.06 86.7495 289.209 86.8706C289.359 86.9905 289.539 87.0504 289.748 87.0504C289.916 87.0504 290.065 87.0111 290.195 86.9326C290.327 86.854 290.43 86.7462 290.505 86.609C290.581 86.4706 290.619 86.3141 290.619 86.1397C290.619 85.9613 290.58 85.8022 290.501 85.6624C290.424 85.5213 290.317 85.4101 290.181 85.3289C290.046 85.2477 289.891 85.2064 289.716 85.205C289.591 85.2037 289.462 85.223 289.331 85.263C289.199 85.3016 289.09 85.3515 289.005 85.4127L288.542 85.3568L288.789 83.3437H290.914V83.7831H289.205L289.061 84.9894H289.085C289.169 84.9228 289.274 84.8675 289.401 84.8236C289.527 84.7797 289.659 84.7577 289.796 84.7577C290.046 84.7577 290.269 84.8176 290.465 84.9374C290.662 85.0559 290.817 85.2184 290.928 85.4247C291.042 85.6311 291.098 85.8668 291.098 86.1317C291.098 86.3927 291.04 86.6257 290.922 86.8307C290.807 87.0344 290.647 87.1955 290.443 87.314C290.239 87.4312 290.008 87.4898 289.748 87.4898Z" fill="#414258"/>
<path d="M228.335 93.7651C228.167 93.7625 227.999 93.7305 227.831 93.6693C227.664 93.608 227.511 93.5049 227.372 93.3597C227.234 93.2133 227.122 93.0156 227.039 92.7666C226.955 92.5163 226.913 92.2021 226.913 91.8239C226.913 91.4618 226.947 91.1409 227.015 90.8613C227.082 90.5804 227.181 90.3441 227.31 90.1524C227.439 89.9593 227.595 89.8128 227.777 89.713C227.961 89.6131 228.168 89.5632 228.399 89.5632C228.628 89.5632 228.831 89.6091 229.01 89.701C229.189 89.7915 229.336 89.918 229.449 90.0805C229.562 90.2429 229.635 90.43 229.669 90.6416H229.181C229.136 90.4579 229.048 90.3055 228.918 90.1843C228.787 90.0631 228.614 90.0026 228.399 90.0026C228.082 90.0026 227.832 90.1404 227.65 90.416C227.469 90.6916 227.377 91.0784 227.376 91.5763H227.408C227.483 91.4631 227.571 91.3666 227.674 91.2867C227.777 91.2055 227.892 91.1429 228.017 91.099C228.142 91.0551 228.275 91.0331 228.415 91.0331C228.649 91.0331 228.863 91.0917 229.058 91.2088C229.252 91.3247 229.408 91.4851 229.525 91.6901C229.642 91.8938 229.701 92.1275 229.701 92.3911C229.701 92.6441 229.644 92.8758 229.531 93.0861C229.418 93.2952 229.259 93.4616 229.054 93.5854C228.85 93.7079 228.61 93.7678 228.335 93.7651ZM228.335 93.3258C228.502 93.3258 228.653 93.2838 228.786 93.2C228.92 93.1161 229.026 93.0036 229.104 92.8624C229.182 92.7213 229.221 92.5642 229.221 92.3911C229.221 92.222 229.183 92.0683 229.108 91.9298C229.033 91.79 228.93 91.6788 228.798 91.5963C228.668 91.5137 228.518 91.4725 228.351 91.4725C228.224 91.4725 228.106 91.4977 227.997 91.5483C227.888 91.5976 227.792 91.6655 227.71 91.752C227.628 91.8386 227.564 91.9378 227.518 92.0496C227.471 92.1601 227.448 92.2766 227.448 92.3991C227.448 92.5615 227.486 92.7133 227.562 92.8545C227.639 92.9956 227.744 93.1094 227.877 93.196C228.012 93.2825 228.164 93.3258 228.335 93.3258Z" fill="#008782"/>
<path d="M237.315 93.7092L239.144 90.0904V90.0585H237.035V89.6191H239.656V90.0825L237.834 93.7092H237.315Z" fill="#414258"/>
<path d="M248.478 93.7651C248.204 93.7651 247.962 93.7166 247.752 93.6194C247.543 93.5208 247.379 93.3857 247.262 93.2139C247.145 93.0409 247.087 92.8438 247.089 92.6228C247.087 92.4497 247.121 92.2899 247.19 92.1435C247.26 91.9957 247.354 91.8725 247.474 91.774C247.595 91.6742 247.73 91.6109 247.879 91.5843V91.5603C247.684 91.5097 247.528 91.3999 247.412 91.2308C247.296 91.0604 247.239 90.8667 247.24 90.6496C247.239 90.4419 247.292 90.2562 247.398 90.0924C247.505 89.9287 247.651 89.7995 247.837 89.705C248.025 89.6105 248.239 89.5632 248.478 89.5632C248.715 89.5632 248.927 89.6105 249.114 89.705C249.3 89.7995 249.446 89.9287 249.553 90.0924C249.661 90.2562 249.715 90.4419 249.717 90.6496C249.715 90.8667 249.656 91.0604 249.539 91.2308C249.423 91.3999 249.269 91.5097 249.078 91.5603V91.5843C249.225 91.6109 249.359 91.6742 249.477 91.774C249.596 91.8725 249.69 91.9957 249.761 92.1435C249.831 92.2899 249.867 92.4497 249.868 92.6228C249.867 92.8438 249.807 93.0409 249.689 93.2139C249.572 93.3857 249.408 93.5208 249.199 93.6194C248.992 93.7166 248.751 93.7651 248.478 93.7651ZM248.478 93.3258C248.664 93.3258 248.823 93.2958 248.958 93.2359C249.092 93.176 249.196 93.0915 249.269 92.9823C249.343 92.8731 249.38 92.7453 249.381 92.5988C249.38 92.4444 249.34 92.3079 249.261 92.1894C249.183 92.0709 249.076 91.9777 248.94 91.9098C248.805 91.8419 248.652 91.808 248.478 91.808C248.304 91.808 248.148 91.8419 248.011 91.9098C247.875 91.9777 247.768 92.0709 247.69 92.1894C247.612 92.3079 247.574 92.4444 247.576 92.5988C247.574 92.7453 247.61 92.8731 247.682 92.9823C247.755 93.0915 247.859 93.176 247.995 93.2359C248.131 93.2958 248.292 93.3258 248.478 93.3258ZM248.478 91.3846C248.625 91.3846 248.755 91.3553 248.868 91.2967C248.982 91.2381 249.072 91.1562 249.138 91.0511C249.203 90.9459 249.236 90.8227 249.237 90.6816C249.236 90.5431 249.203 90.4226 249.14 90.3201C249.076 90.2163 248.987 90.1364 248.874 90.0805C248.761 90.0232 248.629 89.9946 248.478 89.9946C248.325 89.9946 248.192 90.0232 248.077 90.0805C247.963 90.1364 247.874 90.2163 247.811 90.3201C247.749 90.4226 247.718 90.5431 247.72 90.6816C247.718 90.8227 247.75 90.9459 247.813 91.0511C247.879 91.1562 247.969 91.2381 248.083 91.2967C248.198 91.3553 248.329 91.3846 248.478 91.3846Z" fill="#414258"/>
<path d="M258.838 89.5632C259.006 89.5645 259.174 89.5965 259.341 89.6591C259.509 89.7216 259.662 89.8255 259.801 89.9706C259.939 90.1144 260.05 90.3108 260.134 90.5598C260.218 90.8087 260.26 91.121 260.26 91.4964C260.26 91.8599 260.226 92.1828 260.156 92.465C260.088 92.7459 259.99 92.9829 259.861 93.176C259.733 93.3691 259.577 93.5155 259.393 93.6154C259.211 93.7152 259.005 93.7651 258.774 93.7651C258.545 93.7651 258.341 93.7199 258.161 93.6293C257.983 93.5375 257.836 93.4103 257.722 93.2479C257.609 93.0841 257.536 92.8944 257.504 92.6787H257.991C258.035 92.8664 258.123 93.0216 258.253 93.144C258.385 93.2652 258.559 93.3258 258.774 93.3258C259.09 93.3258 259.339 93.188 259.521 92.9124C259.705 92.6368 259.797 92.2473 259.797 91.7441H259.765C259.69 91.8559 259.602 91.9524 259.499 92.0336C259.397 92.1149 259.283 92.1774 259.158 92.2214C259.033 92.2653 258.899 92.2873 258.758 92.2873C258.524 92.2873 258.309 92.2294 258.113 92.1135C257.919 91.9964 257.763 91.8359 257.646 91.6322C257.53 91.4272 257.472 91.1929 257.472 90.9292C257.472 90.6789 257.528 90.4499 257.64 90.2422C257.753 90.0332 257.912 89.8668 258.115 89.7429C258.32 89.6191 258.561 89.5592 258.838 89.5632ZM258.838 90.0026C258.67 90.0026 258.519 90.0445 258.385 90.1284C258.252 90.2109 258.146 90.3228 258.067 90.4639C257.99 90.6037 257.951 90.7588 257.951 90.9292C257.951 91.0997 257.989 91.2548 258.063 91.3946C258.139 91.533 258.242 91.6435 258.373 91.7261C258.505 91.8073 258.654 91.8479 258.822 91.8479C258.949 91.8479 259.067 91.8233 259.176 91.774C259.285 91.7234 259.38 91.6549 259.461 91.5683C259.544 91.4804 259.608 91.3812 259.655 91.2707C259.702 91.1589 259.725 91.0424 259.725 90.9212C259.725 90.7615 259.686 90.6117 259.609 90.4719C259.533 90.3321 259.428 90.2189 259.294 90.1324C259.16 90.0458 259.009 90.0026 258.838 90.0026Z" fill="#414258"/>
<path d="M267.934 89.6191V93.7092H267.439V90.1384H267.415L266.416 90.8014V90.2981L267.439 89.6191H267.934ZM270.444 93.7651C270.143 93.7651 269.887 93.6833 269.675 93.5195C269.464 93.3544 269.302 93.1154 269.19 92.8025C269.078 92.4883 269.022 92.1089 269.022 91.6642C269.022 91.2221 269.078 90.8447 269.19 90.5318C269.303 90.2176 269.466 89.9779 269.677 89.8128C269.89 89.6464 270.146 89.5632 270.444 89.5632C270.742 89.5632 270.997 89.6464 271.209 89.8128C271.422 89.9779 271.585 90.2176 271.696 90.5318C271.81 90.8447 271.866 91.2221 271.866 91.6642C271.866 92.1089 271.81 92.4883 271.698 92.8025C271.587 93.1154 271.425 93.3544 271.213 93.5195C271.001 93.6833 270.745 93.7651 270.444 93.7651ZM270.444 93.3258C270.742 93.3258 270.974 93.182 271.139 92.8944C271.304 92.6068 271.387 92.1967 271.387 91.6642C271.387 91.31 271.349 91.0085 271.273 90.7595C271.198 90.5105 271.091 90.3208 270.949 90.1903C270.81 90.0598 270.641 89.9946 270.444 89.9946C270.149 89.9946 269.918 90.1404 269.751 90.4319C269.585 90.7222 269.502 91.1329 269.502 91.6642C269.502 92.0183 269.539 92.3192 269.613 92.5669C269.688 92.8145 269.795 93.0029 269.935 93.1321C270.076 93.2612 270.246 93.3258 270.444 93.3258Z" fill="#414258"/>
<path d="M278.811 89.6191V93.7092H278.315V90.1384H278.292L277.293 90.8014V90.2981L278.315 89.6191H278.811ZM281.425 89.6191V93.7092H280.93V90.1384H280.906L279.907 90.8014V90.2981L280.93 89.6191H281.425Z" fill="#414258"/>
<path d="M288.694 89.6177V93.7078H288.198V90.1369H288.174L287.176 90.8V90.2967L288.198 89.6177H288.694ZM289.87 93.7078V93.3483L291.22 91.8704C291.379 91.6973 291.509 91.5469 291.612 91.4191C291.714 91.2899 291.79 91.1688 291.839 91.0556C291.89 90.9411 291.915 90.8213 291.915 90.6961C291.915 90.5523 291.88 90.4278 291.811 90.3226C291.743 90.2175 291.65 90.1362 291.532 90.079C291.413 90.0217 291.28 89.9931 291.132 89.9931C290.975 89.9931 290.838 90.0257 290.721 90.091C290.605 90.1549 290.515 90.2448 290.451 90.3606C290.389 90.4764 290.357 90.6122 290.357 90.768H289.886C289.886 90.5283 289.941 90.318 290.052 90.1369C290.162 89.9558 290.313 89.8147 290.503 89.7135C290.695 89.6123 290.91 89.5617 291.148 89.5617C291.388 89.5617 291.6 89.6123 291.785 89.7135C291.97 89.8147 292.115 89.9512 292.221 90.1229C292.326 90.2947 292.378 90.4857 292.378 90.6961C292.378 90.8466 292.351 90.9937 292.297 91.1375C292.243 91.2799 292.15 91.439 292.017 91.6148C291.885 91.7892 291.702 92.0022 291.468 92.2539L290.549 93.2364V93.2684H292.45V93.7078H289.87Z" fill="#414258"/>
<path d="M227.288 95.8945V99.9846H226.793V96.4138H226.769L225.77 97.0768V96.5735L226.793 95.8945H227.288ZM229.846 100.041C229.583 100.041 229.348 99.9953 229.141 99.9047C228.936 99.8142 228.773 99.6884 228.652 99.5273C228.532 99.3648 228.467 99.1764 228.456 98.9621H228.959C228.97 99.0939 229.015 99.2077 229.095 99.3036C229.175 99.3981 229.28 99.4714 229.409 99.5233C229.538 99.5752 229.681 99.6012 229.838 99.6012C230.014 99.6012 230.17 99.5705 230.305 99.5093C230.441 99.4481 230.548 99.3628 230.625 99.2537C230.702 99.1445 230.741 99.018 230.741 98.8742C230.741 98.7238 230.704 98.5913 230.629 98.4768C230.554 98.361 230.445 98.2704 230.301 98.2052C230.158 98.1399 229.982 98.1073 229.774 98.1073H229.447V97.668H229.774C229.937 97.668 230.079 97.6387 230.202 97.5801C230.325 97.5215 230.422 97.439 230.491 97.3324C230.562 97.2259 230.597 97.1008 230.597 96.957C230.597 96.8185 230.566 96.698 230.505 96.5955C230.444 96.493 230.357 96.4131 230.246 96.3558C230.135 96.2986 230.005 96.27 229.854 96.27C229.713 96.27 229.58 96.2959 229.455 96.3479C229.331 96.3985 229.23 96.4723 229.151 96.5695C229.073 96.6654 229.03 96.7812 229.023 96.917H228.544C228.552 96.7027 228.617 96.5149 228.738 96.3538C228.859 96.1914 229.017 96.0649 229.213 95.9744C229.41 95.8839 229.626 95.8386 229.862 95.8386C230.115 95.8386 230.332 95.8898 230.513 95.9924C230.694 96.0936 230.833 96.2274 230.931 96.3938C231.028 96.5602 231.076 96.74 231.076 96.933C231.076 97.1633 231.016 97.3597 230.895 97.5222C230.775 97.6846 230.612 97.7971 230.405 97.8597V97.8916C230.664 97.9342 230.865 98.0441 231.01 98.2212C231.156 98.3969 231.228 98.6146 231.228 98.8742C231.228 99.0966 231.168 99.2963 231.046 99.4734C230.927 99.6491 230.763 99.7876 230.555 99.8888C230.347 99.9899 230.111 100.041 229.846 100.041Z" fill="#008782"/>
<path d="M237.246 95.8945V99.9846H236.751V96.4138H236.727L235.729 97.0768V96.5735L236.751 95.8945H237.246ZM238.327 99.1458V98.7384L240.124 95.8945H240.42V96.5256H240.22L238.862 98.6745V98.7065H241.283V99.1458H238.327ZM240.252 99.9846V99.022V98.8323V95.8945H240.723V99.9846H240.252Z" fill="#414258"/>
<path d="M247.393 95.8945V99.9846H246.898V96.4138H246.874L245.875 97.0768V96.5735L246.898 95.8945H247.393ZM249.848 100.041C249.613 100.041 249.402 99.9939 249.214 99.9007C249.027 99.8075 248.876 99.6797 248.763 99.5173C248.65 99.3549 248.588 99.1698 248.577 98.9621H249.057C249.075 99.1472 249.159 99.3003 249.308 99.4214C249.459 99.5413 249.638 99.6012 249.848 99.6012C250.015 99.6012 250.164 99.5619 250.295 99.4833C250.427 99.4048 250.53 99.2969 250.604 99.1598C250.68 99.0213 250.718 98.8649 250.718 98.6905C250.718 98.5121 250.679 98.353 250.6 98.2132C250.523 98.072 250.417 97.9609 250.281 97.8797C250.145 97.7984 249.99 97.7572 249.816 97.7558C249.69 97.7545 249.562 97.7738 249.43 97.8137C249.298 97.8524 249.19 97.9023 249.105 97.9635L248.641 97.9076L248.889 95.8945H251.014V96.3339H249.304L249.161 97.5401H249.184C249.268 97.4736 249.374 97.4183 249.5 97.3744C249.627 97.3304 249.758 97.3085 249.895 97.3085C250.146 97.3085 250.369 97.3684 250.564 97.4882C250.762 97.6067 250.916 97.7691 251.028 97.9755C251.141 98.1819 251.198 98.4175 251.198 98.6825C251.198 98.9435 251.139 99.1764 251.022 99.3815C250.906 99.5852 250.746 99.7463 250.543 99.8648C250.339 99.982 250.107 100.041 249.848 100.041Z" fill="#414258"/>
<path d="M257.743 95.893V99.9832H257.248V96.4123H257.224L256.225 97.0753V96.5721L257.248 95.893H257.743ZM260.277 100.039C260.11 100.036 259.942 100.004 259.774 99.9432C259.606 99.882 259.453 99.7788 259.315 99.6337C259.176 99.4872 259.065 99.2895 258.981 99.0405C258.897 98.7902 258.855 98.476 258.855 98.0979C258.855 97.7357 258.889 97.4149 258.957 97.1353C259.025 96.8543 259.124 96.618 259.253 96.4263C259.382 96.2332 259.538 96.0868 259.72 95.9869C259.904 95.8871 260.111 95.8371 260.341 95.8371C260.57 95.8371 260.774 95.8831 260.952 95.9749C261.132 96.0655 261.279 96.1919 261.392 96.3544C261.505 96.5168 261.578 96.7039 261.611 96.9156H261.124C261.079 96.7318 260.991 96.5794 260.861 96.4582C260.73 96.3371 260.557 96.2765 260.341 96.2765C260.024 96.2765 259.775 96.4143 259.592 96.6899C259.411 96.9655 259.32 97.3523 259.319 97.8502H259.351C259.425 97.7371 259.514 97.6405 259.616 97.5606C259.72 97.4794 259.835 97.4169 259.96 97.3729C260.085 97.329 260.217 97.307 260.357 97.307C260.592 97.307 260.806 97.3656 261 97.4828C261.195 97.5986 261.351 97.759 261.468 97.9641C261.585 98.1678 261.643 98.4014 261.643 98.6651C261.643 98.918 261.587 99.1497 261.474 99.3601C261.36 99.5691 261.201 99.7355 260.996 99.8593C260.793 99.9818 260.553 100.042 260.277 100.039ZM260.277 99.5997C260.445 99.5997 260.596 99.5578 260.729 99.4739C260.863 99.39 260.969 99.2775 261.046 99.1364C261.125 98.9952 261.164 98.8381 261.164 98.6651C261.164 98.496 261.126 98.3422 261.05 98.2037C260.976 98.0639 260.873 97.9527 260.741 97.8702C260.61 97.7876 260.461 97.7464 260.293 97.7464C260.167 97.7464 260.049 97.7717 259.94 97.8223C259.831 97.8715 259.735 97.9394 259.652 98.026C259.571 98.1125 259.507 98.2117 259.461 98.3235C259.414 98.4341 259.391 98.5506 259.391 98.673C259.391 98.8355 259.429 98.9873 259.504 99.1284C259.582 99.2695 259.687 99.3834 259.82 99.4699C259.955 99.5564 260.107 99.5997 260.277 99.5997Z" fill="#414258"/>
<path d="M268.237 95.893V99.9832H267.741V96.4123H267.717L266.719 97.0753V96.5721L267.741 95.893H268.237ZM269.541 99.9832L271.37 96.3644V96.3324H269.261V95.893H271.881V96.3564L270.06 99.9832H269.541Z" fill="#414258"/>
<path d="M278.26 95.893V99.9832H277.765V96.4123H277.741L276.742 97.0753V96.5721L277.765 95.893H278.26ZM280.747 100.039C280.472 100.039 280.23 99.9905 280.02 99.8933C279.811 99.7948 279.647 99.6596 279.53 99.4879C279.413 99.3148 279.355 99.1177 279.357 98.8967C279.355 98.7236 279.389 98.5639 279.458 98.4174C279.528 98.2696 279.622 98.1465 279.742 98.0479C279.863 97.9481 279.998 97.8848 280.147 97.8582V97.8342C279.952 97.7837 279.796 97.6738 279.68 97.5047C279.564 97.3343 279.507 97.1406 279.508 96.9236C279.507 96.7159 279.56 96.5301 279.666 96.3664C279.773 96.2026 279.919 96.0735 280.105 95.9789C280.293 95.8844 280.507 95.8371 280.747 95.8371C280.984 95.8371 281.195 95.8844 281.382 95.9789C281.568 96.0735 281.714 96.2026 281.821 96.3664C281.929 96.5301 281.983 96.7159 281.985 96.9236C281.983 97.1406 281.924 97.3343 281.807 97.5047C281.691 97.6738 281.537 97.7837 281.346 97.8342V97.8582C281.493 97.8848 281.627 97.9481 281.745 98.0479C281.864 98.1465 281.958 98.2696 282.029 98.4174C282.099 98.5639 282.135 98.7236 282.137 98.8967C282.135 99.1177 282.075 99.3148 281.957 99.4879C281.84 99.6596 281.677 99.7948 281.468 99.8933C281.26 99.9905 281.019 100.039 280.747 100.039ZM280.747 99.5997C280.932 99.5997 281.091 99.5697 281.226 99.5098C281.36 99.4499 281.464 99.3654 281.537 99.2562C281.611 99.147 281.648 99.0192 281.649 98.8728C281.648 98.7183 281.608 98.5818 281.529 98.4633C281.451 98.3448 281.344 98.2516 281.208 98.1837C281.073 98.1158 280.92 98.0819 280.747 98.0819C280.572 98.0819 280.416 98.1158 280.279 98.1837C280.143 98.2516 280.036 98.3448 279.958 98.4633C279.88 98.5818 279.843 98.7183 279.844 98.8728C279.843 99.0192 279.878 99.147 279.95 99.2562C280.023 99.3654 280.127 99.4499 280.263 99.5098C280.399 99.5697 280.56 99.5997 280.747 99.5997ZM280.747 97.6585C280.893 97.6585 281.023 97.6292 281.136 97.5706C281.25 97.512 281.34 97.4302 281.406 97.325C281.471 97.2198 281.504 97.0966 281.505 96.9555C281.504 96.817 281.471 96.6966 281.408 96.594C281.344 96.4902 281.255 96.4103 281.142 96.3544C281.029 96.2971 280.897 96.2685 280.747 96.2685C280.593 96.2685 280.46 96.2971 280.345 96.3544C280.231 96.4103 280.142 96.4902 280.08 96.594C280.017 96.6966 279.986 96.817 279.988 96.9555C279.986 97.0966 280.018 97.2198 280.081 97.325C280.147 97.4302 280.237 97.512 280.351 97.5706C280.466 97.6292 280.597 97.6585 280.747 97.6585Z" fill="#414258"/>
<path d="M288.606 95.893V99.9832H288.111V96.4123H288.087L287.089 97.0753V96.5721L288.111 95.893H288.606ZM291.085 95.8371C291.253 95.8385 291.42 95.8704 291.588 95.933C291.756 95.9956 291.909 96.0994 292.047 96.2445C292.186 96.3883 292.297 96.5847 292.381 96.8337C292.465 97.0827 292.507 97.3949 292.507 97.7703C292.507 98.1338 292.472 98.4567 292.403 98.7389C292.335 99.0199 292.236 99.2569 292.107 99.4499C291.979 99.643 291.824 99.7894 291.64 99.8893C291.458 99.9891 291.251 100.039 291.021 100.039C290.792 100.039 290.587 99.9938 290.408 99.9033C290.229 99.8114 290.083 99.6843 289.968 99.5218C289.855 99.3581 289.783 99.1683 289.751 98.9526H290.238C290.282 99.1404 290.369 99.2955 290.5 99.418C290.631 99.5391 290.805 99.5997 291.021 99.5997C291.336 99.5997 291.585 99.4619 291.768 99.1863C291.951 98.9107 292.043 98.5213 292.043 98.018H292.011C291.937 98.1298 291.848 98.2264 291.746 98.3076C291.643 98.3888 291.529 98.4514 291.404 98.4953C291.279 98.5392 291.146 98.5612 291.005 98.5612C290.771 98.5612 290.556 98.5033 290.36 98.3875C290.165 98.2703 290.01 98.1099 289.892 97.9061C289.777 97.7011 289.719 97.4668 289.719 97.2032C289.719 96.9529 289.775 96.7238 289.886 96.5161C290 96.3071 290.158 96.1407 290.362 96.0169C290.567 95.893 290.808 95.8331 291.085 95.8371ZM291.085 96.2765C290.917 96.2765 290.766 96.3184 290.631 96.4023C290.498 96.4849 290.392 96.5967 290.314 96.7378C290.237 96.8776 290.198 97.0327 290.198 97.2032C290.198 97.3736 290.235 97.5287 290.31 97.6685C290.386 97.807 290.489 97.9175 290.619 98C290.751 98.0812 290.901 98.1218 291.069 98.1218C291.195 98.1218 291.313 98.0972 291.422 98.0479C291.531 97.9973 291.627 97.9288 291.708 97.8422C291.79 97.7544 291.855 97.6552 291.902 97.5447C291.948 97.4328 291.971 97.3163 291.971 97.1952C291.971 97.0354 291.933 96.8856 291.856 96.7458C291.78 96.606 291.675 96.4928 291.54 96.4063C291.407 96.3198 291.255 96.2765 291.085 96.2765Z" fill="#414258"/>
<path d="M225.049 106.259V105.9L226.399 104.422C226.557 104.249 226.688 104.098 226.79 103.971C226.893 103.841 226.969 103.72 227.018 103.607C227.068 103.493 227.094 103.373 227.094 103.248C227.094 103.104 227.059 102.979 226.99 102.874C226.922 102.769 226.829 102.688 226.71 102.631C226.592 102.573 226.459 102.545 226.311 102.545C226.154 102.545 226.017 102.577 225.899 102.642C225.784 102.706 225.694 102.796 225.63 102.912C225.567 103.028 225.536 103.164 225.536 103.32H225.065C225.065 103.08 225.12 102.869 225.23 102.688C225.341 102.507 225.491 102.366 225.682 102.265C225.873 102.164 226.088 102.113 226.327 102.113C226.566 102.113 226.779 102.164 226.964 102.265C227.149 102.366 227.294 102.503 227.399 102.674C227.504 102.846 227.557 103.037 227.557 103.248C227.557 103.398 227.53 103.545 227.475 103.689C227.422 103.831 227.329 103.991 227.196 104.166C227.064 104.341 226.881 104.554 226.646 104.805L225.728 105.788V105.82H227.629V106.259H225.049ZM229.788 106.315C229.487 106.315 229.231 106.233 229.019 106.07C228.807 105.904 228.645 105.665 228.534 105.353C228.422 105.038 228.366 104.659 228.366 104.214C228.366 103.772 228.422 103.395 228.534 103.082C228.647 102.768 228.809 102.528 229.021 102.363C229.234 102.196 229.49 102.113 229.788 102.113C230.086 102.113 230.341 102.196 230.553 102.363C230.766 102.528 230.928 102.768 231.04 103.082C231.153 103.395 231.21 103.772 231.21 104.214C231.21 104.659 231.154 105.038 231.042 105.353C230.93 105.665 230.768 105.904 230.557 106.07C230.345 106.233 230.089 106.315 229.788 106.315ZM229.788 105.876C230.086 105.876 230.318 105.732 230.483 105.444C230.648 105.157 230.73 104.747 230.73 104.214C230.73 103.86 230.693 103.559 230.617 103.31C230.542 103.061 230.434 102.871 230.293 102.74C230.153 102.61 229.985 102.545 229.788 102.545C229.492 102.545 229.261 102.69 229.095 102.982C228.928 103.272 228.845 103.683 228.845 104.214C228.845 104.568 228.882 104.869 228.957 105.117C229.032 105.365 229.139 105.553 229.279 105.682C229.42 105.811 229.589 105.876 229.788 105.876Z" fill="#008782"/>
<path d="M235.919 106.258V105.899L237.269 104.421C237.427 104.248 237.558 104.097 237.66 103.97C237.763 103.84 237.839 103.719 237.888 103.606C237.939 103.492 237.964 103.372 237.964 103.247C237.964 103.103 237.929 102.978 237.86 102.873C237.792 102.768 237.699 102.687 237.58 102.63C237.462 102.572 237.329 102.544 237.181 102.544C237.024 102.544 236.887 102.576 236.77 102.642C236.654 102.705 236.564 102.795 236.5 102.911C236.437 103.027 236.406 103.163 236.406 103.319H235.935C235.935 103.079 235.99 102.869 236.1 102.687C236.211 102.506 236.361 102.365 236.552 102.264C236.744 102.163 236.959 102.112 237.197 102.112C237.437 102.112 237.649 102.163 237.834 102.264C238.019 102.365 238.164 102.502 238.269 102.673C238.375 102.845 238.427 103.036 238.427 103.247C238.427 103.397 238.4 103.544 238.345 103.688C238.292 103.83 238.199 103.99 238.066 104.165C237.934 104.34 237.751 104.553 237.516 104.804L236.598 105.787V105.819H238.499V106.258H235.919ZM240.762 102.168V106.258H240.266V102.687H240.243L239.244 103.35V102.847L240.266 102.168H240.762Z" fill="#414258"/>
<path d="M245.454 106.258V105.899L246.804 104.421C246.962 104.248 247.093 104.097 247.195 103.97C247.298 103.84 247.374 103.719 247.423 103.606C247.473 103.492 247.499 103.372 247.499 103.247C247.499 103.103 247.464 102.978 247.395 102.873C247.327 102.768 247.234 102.687 247.115 102.63C246.997 102.572 246.864 102.544 246.716 102.544C246.559 102.544 246.422 102.576 246.304 102.642C246.189 102.705 246.099 102.795 246.035 102.911C245.972 103.027 245.941 103.163 245.941 103.319H245.47C245.47 103.079 245.525 102.869 245.635 102.687C245.746 102.506 245.896 102.365 246.087 102.264C246.278 102.163 246.493 102.112 246.732 102.112C246.971 102.112 247.184 102.163 247.369 102.264C247.554 102.365 247.699 102.502 247.804 102.673C247.909 102.845 247.962 103.036 247.962 103.247C247.962 103.397 247.935 103.544 247.88 103.688C247.827 103.83 247.734 103.99 247.601 104.165C247.469 104.34 247.286 104.553 247.051 104.804L246.133 105.787V105.819H248.034V106.258H245.454ZM248.859 106.258V105.899L250.209 104.421C250.367 104.248 250.498 104.097 250.6 103.97C250.703 103.84 250.779 103.719 250.828 103.606C250.879 103.492 250.904 103.372 250.904 103.247C250.904 103.103 250.869 102.978 250.8 102.873C250.732 102.768 250.639 102.687 250.52 102.63C250.402 102.572 250.269 102.544 250.121 102.544C249.964 102.544 249.827 102.576 249.71 102.642C249.594 102.705 249.504 102.795 249.44 102.911C249.377 103.027 249.346 103.163 249.346 103.319H248.875C248.875 103.079 248.93 102.869 249.04 102.687C249.151 102.506 249.301 102.365 249.492 102.264C249.684 102.163 249.899 102.112 250.137 102.112C250.377 102.112 250.589 102.163 250.774 102.264C250.959 102.365 251.104 102.502 251.209 102.673C251.315 102.845 251.367 103.036 251.367 103.247C251.367 103.397 251.34 103.544 251.285 103.688C251.232 103.83 251.139 103.99 251.006 104.165C250.874 104.34 250.691 104.553 250.456 104.804L249.538 105.787V105.819H251.439V106.258H248.859Z" fill="#414258"/>
<path d="M255.891 106.258V105.899L257.241 104.421C257.4 104.248 257.53 104.097 257.633 103.97C257.735 103.84 257.811 103.719 257.86 103.606C257.911 103.492 257.936 103.372 257.936 103.247C257.936 103.103 257.902 102.978 257.832 102.873C257.765 102.768 257.671 102.687 257.553 102.63C257.434 102.572 257.301 102.544 257.153 102.544C256.996 102.544 256.859 102.576 256.742 102.642C256.626 102.705 256.536 102.795 256.472 102.911C256.41 103.027 256.379 103.163 256.379 103.319H255.907C255.907 103.079 255.963 102.869 256.073 102.687C256.184 102.506 256.334 102.365 256.524 102.264C256.716 102.163 256.931 102.112 257.169 102.112C257.409 102.112 257.621 102.163 257.807 102.264C257.992 102.365 258.137 102.502 258.242 102.673C258.347 102.845 258.4 103.036 258.4 103.247C258.4 103.397 258.372 103.544 258.318 103.688C258.265 103.83 258.171 103.99 258.038 104.165C257.906 104.34 257.723 104.553 257.489 104.804L256.57 105.787V105.819H258.472V106.258H255.891ZM260.678 106.314C260.415 106.314 260.18 106.269 259.973 106.178C259.768 106.088 259.605 105.962 259.484 105.801C259.364 105.639 259.299 105.45 259.288 105.236H259.792C259.802 105.368 259.848 105.481 259.927 105.577C260.007 105.672 260.112 105.745 260.241 105.797C260.37 105.849 260.513 105.875 260.67 105.875C260.846 105.875 261.002 105.844 261.138 105.783C261.274 105.722 261.38 105.637 261.457 105.527C261.534 105.418 261.573 105.292 261.573 105.148C261.573 104.997 261.536 104.865 261.461 104.75C261.387 104.635 261.278 104.544 261.134 104.479C260.99 104.414 260.814 104.381 260.606 104.381H260.279V103.942H260.606C260.769 103.942 260.911 103.912 261.034 103.854C261.158 103.795 261.254 103.713 261.323 103.606C261.394 103.5 261.429 103.374 261.429 103.231C261.429 103.092 261.399 102.972 261.337 102.869C261.276 102.767 261.19 102.687 261.078 102.63C260.967 102.572 260.837 102.544 260.686 102.544C260.545 102.544 260.412 102.57 260.287 102.622C260.163 102.672 260.062 102.746 259.983 102.843C259.905 102.939 259.862 103.055 259.856 103.191H259.376C259.384 102.976 259.449 102.789 259.57 102.628C259.691 102.465 259.85 102.339 260.045 102.248C260.242 102.158 260.459 102.112 260.694 102.112C260.947 102.112 261.164 102.164 261.345 102.266C261.527 102.367 261.666 102.501 261.763 102.667C261.86 102.834 261.909 103.014 261.909 103.207C261.909 103.437 261.848 103.633 261.727 103.796C261.607 103.958 261.444 104.071 261.238 104.133V104.165C261.496 104.208 261.698 104.318 261.843 104.495C261.988 104.671 262.06 104.888 262.06 105.148C262.06 105.37 262 105.57 261.879 105.747C261.759 105.923 261.595 106.061 261.387 106.162C261.18 106.264 260.943 106.314 260.678 106.314Z" fill="#414258"/>
<path d="M266.134 106.258V105.899L267.484 104.421C267.643 104.248 267.773 104.097 267.876 103.97C267.978 103.84 268.054 103.719 268.103 103.606C268.154 103.492 268.179 103.372 268.179 103.247C268.179 103.103 268.145 102.978 268.075 102.873C268.007 102.768 267.914 102.687 267.796 102.63C267.677 102.572 267.544 102.544 267.396 102.544C267.239 102.544 267.102 102.576 266.985 102.642C266.869 102.705 266.779 102.795 266.715 102.911C266.653 103.027 266.621 103.163 266.621 103.319H266.15C266.15 103.079 266.205 102.869 266.316 102.687C266.426 102.506 266.577 102.365 266.767 102.264C266.959 102.163 267.174 102.112 267.412 102.112C267.652 102.112 267.864 102.163 268.049 102.264C268.234 102.365 268.38 102.502 268.485 102.673C268.59 102.845 268.642 103.036 268.642 103.247C268.642 103.397 268.615 103.544 268.561 103.688C268.507 103.83 268.414 103.99 268.281 104.165C268.149 104.34 267.966 104.553 267.732 104.804L266.813 105.787V105.819H268.714V106.258H266.134ZM269.355 105.42V105.012L271.153 102.168H271.448V102.799H271.249L269.891 104.948V104.98H272.311V105.42H269.355ZM271.281 106.258V105.296V105.106V102.168H271.752V106.258H271.281Z" fill="#414258"/>
<path d="M276.32 106.258V105.899L277.67 104.421C277.828 104.248 277.959 104.097 278.061 103.97C278.164 103.84 278.24 103.719 278.289 103.606C278.34 103.492 278.365 103.372 278.365 103.247C278.365 103.103 278.33 102.978 278.261 102.873C278.193 102.768 278.1 102.687 277.981 102.63C277.863 102.572 277.73 102.544 277.582 102.544C277.425 102.544 277.288 102.576 277.171 102.642C277.055 102.705 276.965 102.795 276.901 102.911C276.838 103.027 276.807 103.163 276.807 103.319H276.336C276.336 103.079 276.391 102.869 276.501 102.687C276.612 102.506 276.762 102.365 276.953 102.264C277.145 102.163 277.36 102.112 277.598 102.112C277.838 102.112 278.05 102.163 278.235 102.264C278.42 102.365 278.565 102.502 278.67 102.673C278.776 102.845 278.828 103.036 278.828 103.247C278.828 103.397 278.801 103.544 278.746 103.688C278.693 103.83 278.6 103.99 278.467 104.165C278.335 104.34 278.152 104.553 277.917 104.804L276.999 105.787V105.819H278.9V106.258H276.32ZM281.003 106.314C280.769 106.314 280.558 106.268 280.37 106.174C280.182 106.081 280.032 105.953 279.919 105.791C279.805 105.629 279.743 105.443 279.733 105.236H280.212C280.231 105.421 280.315 105.574 280.464 105.695C280.614 105.815 280.794 105.875 281.003 105.875C281.171 105.875 281.32 105.836 281.45 105.757C281.582 105.678 281.685 105.571 281.76 105.433C281.836 105.295 281.874 105.139 281.874 104.964C281.874 104.786 281.834 104.627 281.756 104.487C281.679 104.346 281.572 104.235 281.436 104.153C281.301 104.072 281.145 104.031 280.971 104.03C280.846 104.028 280.717 104.047 280.586 104.087C280.454 104.126 280.345 104.176 280.26 104.237L279.797 104.181L280.044 102.168H282.169V102.608H280.46L280.316 103.814H280.34C280.424 103.747 280.529 103.692 280.656 103.648C280.782 103.604 280.914 103.582 281.051 103.582C281.301 103.582 281.524 103.642 281.72 103.762C281.917 103.88 282.071 104.043 282.183 104.249C282.296 104.456 282.353 104.691 282.353 104.956C282.353 105.217 282.294 105.45 282.177 105.655C282.061 105.859 281.902 106.02 281.698 106.138C281.494 106.256 281.263 106.314 281.003 106.314Z" fill="#414258"/>
<path d="M286.651 106.258V105.899L288.001 104.421C288.16 104.248 288.29 104.097 288.393 103.97C288.495 103.84 288.571 103.719 288.62 103.606C288.671 103.492 288.696 103.372 288.696 103.247C288.696 103.103 288.662 102.978 288.592 102.873C288.524 102.768 288.431 102.687 288.313 102.63C288.194 102.572 288.061 102.544 287.913 102.544C287.756 102.544 287.619 102.576 287.502 102.642C287.386 102.705 287.296 102.795 287.232 102.911C287.17 103.027 287.138 103.163 287.138 103.319H286.667C286.667 103.079 286.722 102.869 286.833 102.687C286.943 102.506 287.094 102.365 287.284 102.264C287.476 102.163 287.691 102.112 287.929 102.112C288.169 102.112 288.381 102.163 288.566 102.264C288.751 102.365 288.897 102.502 289.002 102.673C289.107 102.845 289.16 103.036 289.16 103.247C289.16 103.397 289.132 103.544 289.078 103.688C289.024 103.83 288.931 103.99 288.798 104.165C288.666 104.34 288.483 104.553 288.249 104.804L287.33 105.787V105.819H289.231V106.258H286.651ZM291.414 106.314C291.247 106.312 291.079 106.28 290.911 106.218C290.743 106.157 290.59 106.054 290.452 105.909C290.313 105.762 290.202 105.565 290.118 105.316C290.034 105.065 289.992 104.751 289.992 104.373C289.992 104.011 290.026 103.69 290.094 103.41C290.162 103.129 290.261 102.893 290.39 102.701C290.519 102.508 290.675 102.362 290.857 102.262C291.041 102.162 291.248 102.112 291.478 102.112C291.707 102.112 291.911 102.158 292.089 102.25C292.269 102.341 292.416 102.467 292.529 102.63C292.642 102.792 292.715 102.979 292.748 103.191H292.261C292.216 103.007 292.128 102.855 291.997 102.733C291.867 102.612 291.694 102.552 291.478 102.552C291.161 102.552 290.912 102.689 290.729 102.965C290.548 103.241 290.457 103.627 290.456 104.125H290.488C290.562 104.012 290.651 103.916 290.753 103.836C290.857 103.755 290.972 103.692 291.097 103.648C291.222 103.604 291.354 103.582 291.494 103.582C291.729 103.582 291.943 103.641 292.137 103.758C292.332 103.874 292.487 104.034 292.605 104.239C292.722 104.443 292.78 104.677 292.78 104.94C292.78 105.193 292.724 105.425 292.611 105.635C292.497 105.844 292.338 106.011 292.133 106.134C291.93 106.257 291.69 106.317 291.414 106.314ZM291.414 105.875C291.582 105.875 291.733 105.833 291.866 105.749C292 105.665 292.106 105.553 292.183 105.412C292.262 105.27 292.301 105.113 292.301 104.94C292.301 104.771 292.263 104.617 292.187 104.479C292.113 104.339 292.009 104.228 291.878 104.145C291.747 104.063 291.598 104.022 291.43 104.022C291.304 104.022 291.186 104.047 291.077 104.097C290.968 104.147 290.872 104.215 290.789 104.301C290.708 104.388 290.644 104.487 290.597 104.599C290.551 104.709 290.528 104.826 290.528 104.948C290.528 105.111 290.566 105.262 290.641 105.404C290.719 105.545 290.824 105.658 290.957 105.745C291.091 105.832 291.244 105.875 291.414 105.875Z" fill="#414258"/>
<path d="M225.351 112.535V112.176L226.701 110.698C226.86 110.525 226.99 110.374 227.093 110.246C227.195 110.117 227.271 109.996 227.321 109.883C227.371 109.768 227.396 109.649 227.396 109.523C227.396 109.38 227.362 109.255 227.293 109.15C227.225 109.045 227.131 108.964 227.013 108.906C226.894 108.849 226.761 108.821 226.614 108.821C226.456 108.821 226.319 108.853 226.202 108.918C226.086 108.982 225.996 109.072 225.933 109.188C225.87 109.304 225.839 109.44 225.839 109.595H225.367C225.367 109.356 225.423 109.145 225.533 108.964C225.644 108.783 225.794 108.642 225.984 108.541C226.176 108.44 226.391 108.389 226.63 108.389C226.869 108.389 227.082 108.44 227.267 108.541C227.452 108.642 227.597 108.779 227.702 108.95C227.807 109.122 227.86 109.313 227.86 109.523C227.86 109.674 227.832 109.821 227.778 109.965C227.725 110.107 227.631 110.266 227.498 110.442C227.366 110.617 227.183 110.83 226.949 111.081L226.03 112.064V112.096H227.932V112.535H225.351ZM228.884 112.535L230.714 108.916V108.884H228.605V108.445H231.225V108.908L229.404 112.535H228.884Z" fill="#008782"/>
<path d="M235.366 112.535V112.176L236.716 110.698C236.875 110.525 237.005 110.374 237.108 110.246C237.21 110.117 237.286 109.996 237.336 109.883C237.386 109.768 237.411 109.649 237.411 109.523C237.411 109.38 237.377 109.255 237.308 109.15C237.24 109.045 237.146 108.964 237.028 108.906C236.909 108.849 236.776 108.821 236.629 108.821C236.471 108.821 236.334 108.853 236.217 108.918C236.101 108.982 236.011 109.072 235.948 109.188C235.885 109.304 235.854 109.44 235.854 109.595H235.382C235.382 109.356 235.438 109.145 235.548 108.964C235.659 108.783 235.809 108.642 235.999 108.541C236.191 108.44 236.406 108.389 236.645 108.389C236.884 108.389 237.097 108.44 237.282 108.541C237.467 108.642 237.612 108.779 237.717 108.95C237.822 109.122 237.875 109.313 237.875 109.523C237.875 109.674 237.847 109.821 237.793 109.965C237.74 110.107 237.646 110.266 237.513 110.442C237.381 110.617 237.198 110.83 236.964 111.081L236.045 112.064V112.096H237.947V112.535H235.366ZM240.082 112.591C239.807 112.591 239.565 112.542 239.355 112.445C239.146 112.347 238.983 112.212 238.865 112.04C238.748 111.867 238.69 111.67 238.692 111.449C238.69 111.276 238.724 111.116 238.793 110.969C238.863 110.822 238.957 110.698 239.077 110.6C239.198 110.5 239.333 110.437 239.482 110.41V110.386C239.287 110.336 239.131 110.226 239.015 110.057C238.899 109.886 238.842 109.693 238.843 109.476C238.842 109.268 238.895 109.082 239.001 108.918C239.108 108.755 239.254 108.625 239.441 108.531C239.628 108.436 239.842 108.389 240.082 108.389C240.319 108.389 240.53 108.436 240.717 108.531C240.903 108.625 241.05 108.755 241.156 108.918C241.264 109.082 241.318 109.268 241.32 109.476C241.318 109.693 241.259 109.886 241.142 110.057C241.026 110.226 240.872 110.336 240.681 110.386V110.41C240.829 110.437 240.962 110.5 241.08 110.6C241.199 110.698 241.293 110.822 241.364 110.969C241.434 111.116 241.47 111.276 241.472 111.449C241.47 111.67 241.41 111.867 241.292 112.04C241.175 112.212 241.012 112.347 240.803 112.445C240.595 112.542 240.355 112.591 240.082 112.591ZM240.082 112.152C240.267 112.152 240.426 112.122 240.561 112.062C240.695 112.002 240.799 111.917 240.872 111.808C240.946 111.699 240.983 111.571 240.984 111.425C240.983 111.27 240.943 111.134 240.864 111.015C240.786 110.897 240.679 110.804 240.543 110.736C240.408 110.668 240.255 110.634 240.082 110.634C239.907 110.634 239.751 110.668 239.614 110.736C239.478 110.804 239.371 110.897 239.293 111.015C239.216 111.134 239.178 111.27 239.179 111.425C239.178 111.571 239.213 111.699 239.285 111.808C239.358 111.917 239.462 112.002 239.598 112.062C239.734 112.122 239.895 112.152 240.082 112.152ZM240.082 110.211C240.228 110.211 240.358 110.181 240.471 110.123C240.586 110.064 240.675 109.982 240.741 109.877C240.806 109.772 240.839 109.649 240.84 109.508C240.839 109.369 240.807 109.249 240.743 109.146C240.679 109.042 240.59 108.962 240.477 108.906C240.364 108.849 240.232 108.821 240.082 108.821C239.928 108.821 239.795 108.849 239.68 108.906C239.566 108.962 239.477 109.042 239.415 109.146C239.352 109.249 239.321 109.369 239.323 109.508C239.321 109.649 239.353 109.772 239.417 109.877C239.482 109.982 239.572 110.064 239.686 110.123C239.801 110.181 239.932 110.211 240.082 110.211Z" fill="#414258"/>
<path d="M245.366 112.534V112.175L246.716 110.697C246.875 110.524 247.005 110.374 247.108 110.246C247.21 110.117 247.286 109.995 247.335 109.882C247.386 109.768 247.411 109.648 247.411 109.523C247.411 109.379 247.377 109.254 247.307 109.149C247.24 109.044 247.146 108.963 247.028 108.906C246.909 108.848 246.776 108.82 246.628 108.82C246.471 108.82 246.334 108.852 246.217 108.918C246.101 108.982 246.011 109.071 245.947 109.187C245.885 109.303 245.854 109.439 245.854 109.595H245.382C245.382 109.355 245.437 109.145 245.548 108.964C245.659 108.782 245.809 108.641 245.999 108.54C246.191 108.439 246.406 108.388 246.644 108.388C246.884 108.388 247.096 108.439 247.282 108.54C247.467 108.641 247.612 108.778 247.717 108.95C247.822 109.121 247.875 109.312 247.875 109.523C247.875 109.673 247.847 109.82 247.793 109.964C247.74 110.107 247.646 110.266 247.513 110.441C247.381 110.616 247.198 110.829 246.964 111.081L246.045 112.063V112.095H247.947V112.534H245.366ZM250.073 108.388C250.241 108.39 250.409 108.422 250.577 108.484C250.745 108.547 250.898 108.651 251.036 108.796C251.175 108.94 251.286 109.136 251.37 109.385C251.453 109.634 251.495 109.946 251.495 110.322C251.495 110.685 251.461 111.008 251.392 111.29C251.324 111.571 251.225 111.808 251.096 112.001C250.968 112.194 250.812 112.341 250.629 112.441C250.446 112.54 250.24 112.59 250.01 112.59C249.781 112.59 249.576 112.545 249.396 112.455C249.218 112.363 249.072 112.236 248.957 112.073C248.844 111.909 248.771 111.72 248.739 111.504H249.227C249.271 111.692 249.358 111.847 249.488 111.969C249.62 112.09 249.794 112.151 250.01 112.151C250.325 112.151 250.574 112.013 250.756 111.738C250.94 111.462 251.032 111.073 251.032 110.569H251C250.926 110.681 250.837 110.778 250.735 110.859C250.632 110.94 250.518 111.003 250.393 111.047C250.268 111.091 250.135 111.112 249.994 111.112C249.759 111.112 249.544 111.055 249.349 110.939C249.154 110.822 248.998 110.661 248.881 110.457C248.765 110.252 248.707 110.018 248.707 109.754C248.707 109.504 248.763 109.275 248.875 109.067C248.988 108.858 249.147 108.692 249.351 108.568C249.556 108.444 249.797 108.384 250.073 108.388ZM250.073 108.828C249.906 108.828 249.755 108.87 249.62 108.954C249.487 109.036 249.381 109.148 249.303 109.289C249.225 109.429 249.187 109.584 249.187 109.754C249.187 109.925 249.224 110.08 249.299 110.22C249.374 110.358 249.478 110.469 249.608 110.551C249.74 110.632 249.89 110.673 250.058 110.673C250.184 110.673 250.302 110.648 250.411 110.599C250.52 110.549 250.615 110.48 250.697 110.394C250.779 110.306 250.844 110.206 250.89 110.096C250.937 109.984 250.96 109.868 250.96 109.746C250.96 109.587 250.922 109.437 250.844 109.297C250.768 109.157 250.663 109.044 250.529 108.958C250.396 108.871 250.244 108.828 250.073 108.828Z" fill="#414258"/>
<path d="M257.007 112.59C256.743 112.59 256.508 112.545 256.302 112.455C256.097 112.364 255.934 112.238 255.812 112.077C255.693 111.915 255.627 111.726 255.617 111.512H256.12C256.131 111.644 256.176 111.758 256.256 111.853C256.336 111.948 256.44 112.021 256.569 112.073C256.698 112.125 256.842 112.151 256.999 112.151C257.174 112.151 257.33 112.12 257.466 112.059C257.602 111.998 257.708 111.913 257.786 111.803C257.863 111.694 257.901 111.568 257.901 111.424C257.901 111.274 257.864 111.141 257.79 111.027C257.715 110.911 257.606 110.82 257.462 110.755C257.318 110.69 257.142 110.657 256.935 110.657H256.607V110.218H256.935C257.097 110.218 257.24 110.188 257.362 110.13C257.486 110.071 257.583 109.989 257.652 109.882C257.722 109.776 257.758 109.651 257.758 109.507C257.758 109.368 257.727 109.248 257.666 109.145C257.604 109.043 257.518 108.963 257.406 108.906C257.296 108.848 257.165 108.82 257.015 108.82C256.874 108.82 256.74 108.846 256.615 108.898C256.491 108.948 256.39 109.022 256.312 109.119C256.233 109.215 256.191 109.331 256.184 109.467H255.705C255.713 109.252 255.777 109.065 255.898 108.904C256.019 108.741 256.178 108.615 256.374 108.524C256.571 108.434 256.787 108.388 257.023 108.388C257.276 108.388 257.493 108.44 257.674 108.542C257.855 108.643 257.994 108.777 258.091 108.944C258.188 109.11 258.237 109.29 258.237 109.483C258.237 109.713 258.176 109.91 258.055 110.072C257.935 110.234 257.772 110.347 257.566 110.409V110.441C257.824 110.484 258.026 110.594 258.171 110.771C258.316 110.947 258.389 111.164 258.389 111.424C258.389 111.646 258.328 111.846 258.207 112.023C258.087 112.199 257.923 112.337 257.716 112.439C257.508 112.54 257.272 112.59 257.007 112.59ZM260.54 112.59C260.239 112.59 259.982 112.508 259.771 112.345C259.559 112.18 259.397 111.941 259.285 111.628C259.174 111.314 259.118 110.934 259.118 110.489C259.118 110.047 259.174 109.67 259.285 109.357C259.399 109.043 259.561 108.803 259.773 108.638C259.986 108.472 260.241 108.388 260.54 108.388C260.838 108.388 261.093 108.472 261.305 108.638C261.518 108.803 261.68 109.043 261.792 109.357C261.905 109.67 261.962 110.047 261.962 110.489C261.962 110.934 261.906 111.314 261.794 111.628C261.682 111.941 261.52 112.18 261.308 112.345C261.097 112.508 260.841 112.59 260.54 112.59ZM260.54 112.151C260.838 112.151 261.07 112.007 261.235 111.72C261.4 111.432 261.482 111.022 261.482 110.489C261.482 110.135 261.444 109.834 261.368 109.585C261.294 109.336 261.186 109.146 261.045 109.015C260.905 108.885 260.737 108.82 260.54 108.82C260.244 108.82 260.013 108.966 259.847 109.257C259.68 109.547 259.597 109.958 259.597 110.489C259.597 110.844 259.634 111.144 259.709 111.392C259.783 111.64 259.891 111.828 260.03 111.957C260.171 112.086 260.341 112.151 260.54 112.151Z" fill="#414258"/>
<path d="M250.155 81.8945C246.114 82.5156 246.923 88.943 250.911 88.9507C252.406 88.9537 253.946 87.9707 254.311 86.4734C254.799 84.477 253.413 81.3436 250.155 81.8945ZM251.262 87.704C249.995 87.8854 248.927 86.9375 248.667 85.732C248.361 84.3108 249.215 83.1061 250.522 82.7655C252.127 82.5346 253.079 83.9634 253.147 85.2367C253.216 86.5275 252.467 87.5318 251.262 87.704Z" fill="#008782"/>
<path d="M272.534 64.0074L281.92 59.3287L285.768 72.6317L313.763 46.2192L320.164 60.2058L284.31 80.8963L272.534 64.0074Z" fill="#008782"/>
<path d="M316.243 252.91C342.154 252.91 363.159 231.905 363.159 205.994C363.159 180.083 342.154 159.078 316.243 159.078C290.332 159.078 269.327 180.083 269.327 205.994C269.327 231.905 290.332 252.91 316.243 252.91Z" fill="#B8D7F4"/>
<path d="M298.518 185C296.259 185 294.092 185.894 292.495 187.485C290.897 189.076 290 191.234 290 193.484V196.312H343V193.484C343 191.234 342.103 189.076 340.505 187.485C338.908 185.894 336.741 185 334.482 185H298.518ZM290 217.994V200.083H343V217.994C343 220.244 342.103 222.402 340.505 223.993C338.908 225.584 336.741 226.478 334.482 226.478H298.518C296.259 226.478 294.092 225.584 292.495 223.993C290.897 222.402 290 220.244 290 217.994ZM325.964 211.395C325.462 211.395 324.981 211.594 324.626 211.947C324.271 212.301 324.071 212.781 324.071 213.281C324.071 213.781 324.271 214.26 324.626 214.614C324.981 214.967 325.462 215.166 325.964 215.166H331.643C332.145 215.166 332.626 214.967 332.981 214.614C333.336 214.26 333.536 213.781 333.536 213.281C333.536 212.781 333.336 212.301 332.981 211.947C332.626 211.594 332.145 211.395 331.643 211.395H325.964Z" fill="#454EE9"/>
<path d="M322.683 178.052L332.069 173.374L335.916 186.677L363.911 160.264L370.312 174.251L334.459 194.941L322.683 178.052Z" fill="#008782"/>
<path d="M217.418 214.63C224.236 228.23 225.238 231.073 230.855 244.602C236.049 257.113 227.354 265.437 224.79 264.922C214.677 262.89 208.312 239.173 199.458 227.763C195.066 222.103 186.09 191.61 199.023 192.787C207.264 193.536 213.078 205.973 217.418 214.63Z" fill="#F2A9A5"/>
<path d="M247.287 186.657L230.084 179.583C229.406 179.304 228.63 179.628 228.35 180.306L212.267 219.42C211.988 220.099 212.312 220.874 212.99 221.154L230.192 228.228C230.871 228.506 231.647 228.183 231.926 227.504L248.01 188.39C248.289 187.712 247.965 186.936 247.287 186.657Z" fill="#414258"/>
<path d="M243.619 190.709C243.172 191.796 241.929 192.314 240.842 191.868C239.755 191.421 239.236 190.178 239.683 189.09C240.13 188.004 241.373 187.485 242.46 187.931C243.547 188.379 244.066 189.622 243.619 190.709Z" fill="#F7F7F8"/>
<path d="M238.858 187.727C238.671 188.183 238.149 188.4 237.693 188.213C237.237 188.025 237.019 187.503 237.207 187.048C237.394 186.591 237.916 186.374 238.372 186.561C238.828 186.749 239.046 187.27 238.858 187.727Z" fill="#F7F7F8"/>
<path d="M243.036 210.147C242.293 208.457 239.557 203.943 238.22 202.216C235.671 198.923 231.743 196.151 231.317 197.453C231.743 198.882 237.077 204.216 236.125 204.608C232.564 201.491 226.085 196.661 224.314 197.834C223.171 198.882 233.59 205.603 232.886 207.074C231.317 207.169 223.186 199.531 221.928 200.98C221.532 202.597 230.695 208.788 230.695 210.026C229.728 210.503 222.694 205.931 221.532 207.264C221.532 208.883 225.9 209.937 230.981 213.932C231.476 214.321 233.683 218.129 234.031 218.654C234.402 219.215 234.432 219.927 234.449 220.6C234.456 220.854 234.423 221.162 234.363 221.507C230.241 232.761 226.831 234.612 222.505 242.824C220.572 246.493 217.578 251.126 217.425 255.27C217.271 259.415 220.001 264.458 224.791 264.922C240.724 266.467 240.819 237.245 243.78 224.028C244.76 220.675 244.237 212.877 243.036 210.147Z" fill="#F2A9A5"/>
<path d="M222.899 175.364L207.518 162.331L217.418 154.952L222.899 175.364Z" fill="#008782"/>
<path d="M233.417 174.876L232.479 151.727L243.779 153.352L233.417 174.876Z" fill="#008782"/>
<path d="M243.779 177.546L256.966 166.46L261.704 174.876L243.779 177.546Z" fill="#008782"/>
<path d="M127.73 138.97C125.702 144.263 124.87 150.294 127.254 157.544C127.951 159.665 129.73 162.401 128.712 166.601C127.349 172.22 121.92 172.593 120.491 179.07C119.255 184.678 120.68 188.188 123.636 193.055C126.592 197.922 126.224 201.116 127.068 206.808C128.295 215.079 122.573 221.335 118.956 228.796C108.702 249.945 122.914 261.117 125.25 262.855C143.07 276.115 192.573 264.179 195.346 258.731C205.897 238.005 190.181 228.396 192.184 225.695C196.289 220.16 198.553 212.968 197.526 206.055C196.539 199.404 192.645 193.254 193.002 186.534C193.381 179.399 198.454 171.935 195.055 165.728C194.308 164.364 193.202 163.236 192.493 161.849C190.572 158.095 191.945 153.547 192.611 149.35C193.745 142.209 190.695 132.297 185.746 126.136C180.471 119.57 174.312 120.933 174.312 120.933C166.588 111.985 155.342 112.796 145.109 118.798C134.93 124.768 129.929 133.234 127.73 138.97Z" fill="#534099"/>
<path d="M122.038 233.92C119.178 241.604 119.237 252.519 127.47 256.924C127.93 257.17 128.492 256.533 128.054 256.166C121.137 250.375 120.478 242.48 123.313 234.271C123.592 233.46 122.331 233.132 122.038 233.92Z" fill="#5E4EAF"/>
<path d="M125.899 239.727C125.19 243.933 126.208 248.607 129.818 251.218C130.331 251.588 131.033 250.86 130.685 250.351C128.477 247.104 126.672 243.9 126.741 239.841C126.749 239.371 125.981 239.241 125.899 239.727Z" fill="#5E4EAF"/>
<path d="M216.294 358.391C184.16 358.597 151.577 354.863 121.79 342.595C122.126 325.938 125.494 314.843 126.736 311.277C131.049 298.933 141.816 281.513 140.391 274.571C136.124 253.746 128.298 237.165 126.553 231.054C123.535 220.477 130.683 208.788 125.486 198.28C125.486 198.28 131.544 195.301 140.391 194.447C148.994 193.617 178.399 192.032 186.941 192.032C190.881 192.032 196.36 191.879 199.027 192.786C197.106 203.904 197.289 201.633 198.524 213.909C199.065 219.25 204.62 226.07 205.496 233.523C207.035 246.637 202.418 252.085 200.215 259.842C194.843 278.793 207.553 302.171 209.169 307.657C216.53 332.621 216.637 344.607 216.294 358.391Z" fill="#008782"/>
<path d="M118.305 215.19C120.015 221.647 126.531 231.781 132.493 238.982C137.854 245.458 142.417 251.129 148.773 256.632C154.969 261.996 161.143 268.394 169.262 269.523C172.403 269.959 176.357 268.966 177.141 265.892C177.451 264.676 177.026 263.424 176.867 262.179C175.26 249.651 155.643 229.606 140.474 207.214C137.339 202.586 131.707 194.838 125.483 198.278C119.103 201.805 116.704 209.144 118.305 215.19Z" fill="#FFC4BE"/>
<path d="M206.407 209.645C206.311 207.915 204.978 204.692 203.263 204.121C202.324 203.808 202.559 202.121 201.644 201.74C201.152 201.535 199.914 201.573 199.43 201.349C199.245 200.223 198.197 199.715 195.456 199.644C195.733 198.547 200.025 188.194 199.024 187.157C197.006 185.066 190.946 199.87 190.215 202.121C189.228 206.572 191.923 212.472 195.409 216.004C195.41 216.006 195.41 216.008 195.411 216.01C195.663 217.02 186.253 235.153 169.546 247.841C163.178 252.677 160.906 272.164 173.586 269.2C176.638 268.486 180.451 266.003 182.596 263.715C188.396 257.526 192.353 250.623 195.835 242.888C198.597 236.754 204.884 218.504 204.884 218.504C206.267 213.218 206.531 211.903 206.407 209.645Z" fill="#FFC4BE"/>
<path d="M150.781 189.196C150.313 190.214 144.449 193.173 140.394 194.448C141.493 200.792 149.257 216.79 159.163 220.505C167.049 223.462 176.238 223.502 181.451 216.885C185.654 211.551 187.404 198.215 186.944 192.029C182.05 191.088 180.689 190.12 175.929 188.215C175.149 187.902 171.032 170.482 170.502 167.566C170.459 167.328 150.64 164.607 150.69 166.042C151.092 177.484 152.444 185.581 150.781 189.196Z" fill="#F2A9A5"/>
<path d="M153.42 179.402C160.553 184.496 170.382 185.722 176.465 179.414C179.422 176.348 182.02 171.22 183.245 167.141C184.688 162.335 185.811 157.374 185.743 152.357C185.608 142.536 180.288 132.603 171.479 128.261C162.669 123.92 150.684 126.302 145.209 134.456C136.64 147.216 141.039 170.562 153.42 179.402Z" fill="#FFC4BE"/>
<path d="M158.258 160.572C158.258 161.633 156.78 162.493 154.956 162.493C153.133 162.493 151.655 161.633 151.655 160.572C151.655 159.51 153.133 158.649 154.956 158.649C156.78 158.65 158.258 159.51 158.258 160.572Z" fill="#F2A9A5"/>
<path d="M179.439 161.165C179.439 162.226 177.96 163.087 176.137 163.087C174.313 163.087 172.835 162.227 172.835 161.165C172.835 160.102 174.313 159.243 176.137 159.243C177.96 159.243 179.439 160.103 179.439 161.165Z" fill="#F2A9A5"/>
<path d="M158.246 147.516C163.147 143.43 167.697 137.911 170.908 132.398C173.637 136.107 175.559 140.029 178.288 143.738C181.346 147.895 185.017 155.783 185.747 160.892C192.787 147.821 185.747 134.835 180.409 128.703C179.583 127.754 173.459 123.345 172.442 123.335C171.488 123.326 170.648 122.753 169.825 122.27C165.35 119.637 157.389 121.373 152.596 123.37C126.598 134.199 133.283 155.795 135.756 156.403C137.629 156.863 140.405 155.261 142.186 154.743C148.121 153.015 153.369 151.579 158.246 147.516Z" fill="#534099"/>
<path d="M144.614 162.436C144.513 160.968 144.412 159.499 144.311 158.031L144.323 156.84C143.992 155.474 143.338 154.188 142.431 153.115C141.665 152.208 140.612 151.416 139.425 151.435C138.221 151.454 137.152 152.34 136.632 153.427C136.112 154.514 136.061 155.767 136.166 156.967C136.454 160.246 137.877 163.416 140.136 165.809C140.722 166.43 141.447 167.034 142.3 167.038C143.27 167.043 144.093 166.231 144.418 165.318C144.743 164.404 144.681 163.404 144.614 162.436Z" fill="#FFC4BE"/>
<path d="M166.863 151.443C164.449 156.119 166.484 160.72 168.715 165.029C168.814 164.651 168.912 164.275 169.012 163.898C167.895 164.634 166.39 164.309 165.219 164.882C164.691 165.14 164.911 165.852 165.368 166.024C166.562 166.473 168.806 166.033 169.846 165.325C170.225 165.067 170.366 164.611 170.142 164.194C168.144 160.473 166.012 156.246 167.834 152.011C168.112 151.364 167.203 150.785 166.863 151.443Z" fill="#DD8C8A"/>
<path d="M157.812 168.824C159.233 170.25 160.926 171.251 162.872 171.788C164.375 172.203 166.639 172.715 167.898 171.579C168.17 171.334 168.108 170.82 167.779 170.653C166.54 170.024 164.971 170.443 163.608 170.155C161.846 169.782 160.227 168.934 158.835 167.801C158.128 167.226 157.141 168.151 157.812 168.824Z" fill="#DD8C8A"/>
<path d="M159.522 173.813C160.385 174.215 161.271 174.556 162.195 174.791C162.941 174.98 163.956 175.346 164.628 174.837C164.862 174.66 164.93 174.368 164.719 174.136C164.187 173.552 163.284 173.639 162.556 173.485C161.678 173.298 160.831 173.017 160.003 172.671C159.355 172.399 158.881 173.515 159.522 173.813Z" fill="#DD8C8A"/>
<path d="M155.728 146.009C156.677 144.811 157.946 143.955 159.432 143.562C161.001 143.146 162.298 143.54 163.835 143.801C164.441 143.904 164.749 143.186 164.248 142.822C161.296 140.678 156.788 142.78 155.041 145.479C154.776 145.888 155.417 146.402 155.728 146.009Z" fill="#534099"/>
<path d="M171.261 145.08C172.226 144.227 173.75 143.942 174.996 143.894C176.107 143.85 177.218 144.395 178.287 144.275C178.719 144.226 178.918 143.863 178.75 143.469C178.174 142.115 175.888 142.278 174.714 142.429C173.18 142.624 171.552 143.12 170.554 144.373C170.158 144.868 170.769 145.515 171.261 145.08Z" fill="#534099"/>
<path d="M142.192 155.404C141.337 153.907 139.068 152.767 138.007 154.711C137.209 156.174 137.534 158.493 137.962 160.009C138.404 161.576 139.854 164.272 141.649 164.537C142.066 164.599 142.541 164.181 142.254 163.75C141.526 162.655 140.403 161.974 139.737 160.785C138.991 159.455 138.668 157.717 138.826 156.191C139.015 154.358 140.504 154.604 141.391 155.873C141.728 156.356 142.493 155.931 142.192 155.404Z" fill="#DD8C8A"/>
<path d="M159.97 153.352C159.97 154.825 159.339 156.02 158.561 156.02C157.783 156.02 157.151 154.826 157.151 153.352C157.151 151.878 157.782 150.684 158.561 150.684C159.339 150.685 159.97 151.879 159.97 153.352Z" fill="#534099"/>
<path d="M175.562 153.352C175.562 154.825 174.931 156.02 174.152 156.02C173.373 156.02 172.742 154.826 172.742 153.352C172.742 151.878 173.373 150.684 174.152 150.684C174.931 150.684 175.562 151.879 175.562 153.352Z" fill="#534099"/>
<path d="M150.312 201.87C152.994 201.546 155.659 201.536 158.328 202.003C160.297 202.348 162.197 203.138 164.207 203.098C164.738 203.087 164.803 202.374 164.328 202.203C159.836 200.588 154.883 200.229 150.189 200.957C149.677 201.037 149.792 201.932 150.312 201.87Z" fill="#DD8C8A"/>
<path d="M170.857 202.523C172.689 201.968 174.548 201.555 176.456 201.366C178.161 201.198 179.86 201.372 181.556 201.229C182.152 201.179 182.364 200.276 181.706 200.124C178.151 199.303 173.936 200.307 170.577 201.507C169.947 201.732 170.2 202.722 170.857 202.523Z" fill="#DD8C8A"/>
<path d="M144.513 148.822C149.222 147.683 153.193 145.202 156.746 141.951C160.118 138.867 164.22 134.847 165.892 130.506C166.038 130.128 165.495 129.861 165.235 130.124C162.156 133.242 159.942 137.145 156.773 140.258C153.202 143.767 149.142 146.632 144.284 147.996C143.753 148.145 143.976 148.952 144.513 148.822Z" fill="#5E4EAF"/>
<path d="M142.94 144.557C145.635 140.946 148.345 137.271 151.664 134.196C155.123 130.989 158.805 129.348 163.201 127.816C163.736 127.629 163.698 126.712 163.059 126.763C153.571 127.521 147.084 137.018 142.37 144.224C142.133 144.586 142.692 144.889 142.94 144.557Z" fill="#5E4EAF"/>
<path d="M136.719 139.826C142.223 130.266 150.927 124.202 161.654 122.056C162.066 121.973 161.926 121.407 161.562 121.371C156.271 120.859 150.333 124.384 146.246 127.446C141.957 130.659 138.563 134.714 135.979 139.393C135.711 139.876 136.443 140.304 136.719 139.826Z" fill="#5E4EAF"/>
<path d="M133.819 135.694C136.21 130.57 139.865 126.303 144.601 123.193C148.711 120.494 157.196 116.42 162.091 119.066C162.637 119.361 163.054 118.601 162.569 118.248C158.348 115.186 149.921 118.964 145.975 121.203C140.286 124.43 135.873 129.381 133.219 135.343C133.038 135.747 133.629 136.103 133.819 135.694Z" fill="#5E4EAF"/>
<path d="M173.972 131.11C179.625 134.967 181.419 142.637 186.1 147.468C186.387 147.764 186.855 147.388 186.661 147.036C184.711 143.498 182.293 140.105 180.175 136.651C178.627 134.127 176.928 131.98 174.332 130.493C173.93 130.262 173.597 130.853 173.972 131.11Z" fill="#5E4EAF"/>
<path d="M175.682 127.387C178.148 128.407 180.364 129.971 182.136 131.97C182.976 132.918 183.711 133.97 184.343 135.068C184.876 135.993 185.144 137.002 185.857 137.801C186.082 138.052 186.465 137.838 186.482 137.542C186.617 135.189 184.373 132.467 182.818 130.856C180.887 128.855 178.538 127.451 175.91 126.56C175.376 126.379 175.187 127.182 175.682 127.387Z" fill="#5E4EAF"/>
<path d="M176.977 124.332C178.05 124.815 179.099 125.342 180.122 125.925C181.047 126.452 181.941 127.15 182.97 127.446C183.386 127.566 183.627 127.056 183.37 126.759C181.977 125.155 179.226 124.336 177.273 123.63C176.868 123.484 176.579 124.153 176.977 124.332Z" fill="#5E4EAF"/>
<path d="M131.678 158.802C133.712 162.639 135.445 166.723 132.234 170.488C130.653 172.342 128.648 173.464 127.574 175.747C126 179.095 126.327 183.91 129.271 186.395C129.694 186.752 130.304 186.313 130.042 185.8C128.331 182.455 127.163 178.893 129.333 175.436C130.768 173.151 133.46 171.929 134.686 169.483C136.609 165.647 134.617 161.581 132.757 158.171C132.372 157.464 131.302 158.092 131.678 158.802Z" fill="#5E4EAF"/>
<path d="M138.595 170.01C133.648 174.557 132.457 183.028 136.743 188.46C137.121 188.939 137.879 188.417 137.728 187.886C135.964 181.679 134.099 175.981 139.315 170.729C139.778 170.263 139.076 169.568 138.595 170.01Z" fill="#5E4EAF"/>
<path d="M142.444 176.62C140.817 180.236 140.476 185.179 143.453 188.209C143.822 188.585 144.507 188.204 144.349 187.688C143.222 184.019 142.256 180.913 143.635 177.122C143.885 176.435 142.748 175.944 142.444 176.62Z" fill="#5E4EAF"/>
<path d="M187.818 166.842C189.16 168.767 190.312 170.935 189.892 173.418C189.645 174.875 188.827 176.295 188.443 177.729C187.788 180.178 187.396 182.759 187.783 185.274C187.86 185.78 188.558 185.589 188.607 185.162C188.859 182.96 188.871 180.798 189.368 178.62C189.79 176.777 190.738 175.057 191.087 173.21C191.574 170.626 190.441 168.225 188.958 166.174C188.468 165.494 187.328 166.138 187.818 166.842Z" fill="#5E4EAF"/>
<path d="M183.371 175.563C181.482 178.857 179.905 184.198 181.968 187.754C182.261 188.26 183.037 188.03 183.049 187.461C183.087 185.712 182.567 184.027 182.663 182.257C182.779 180.093 183.313 178.028 184.235 176.069C184.504 175.494 183.697 174.996 183.371 175.563Z" fill="#5E4EAF"/>
<path d="M261.349 342.322C259.96 342.574 258.595 342.434 257.284 341.914C257.238 341.896 257.218 341.97 257.263 341.987C258.589 342.514 259.967 342.649 261.369 342.395C261.417 342.386 261.397 342.313 261.349 342.322Z" fill="#E3F2FF"/>
</svg>
